<?xml version="1.0" standalone="no"?>
<!DOCTYPE svg PUBLIC "-//W3C//DTD SVG 20010904//EN"
 "http://www.w3.org/TR/2001/REC-SVG-20010904/DTD/svg10.dtd">
<svg version="1.0" xmlns="http://www.w3.org/2000/svg"
 width="2048.000000pt" height="2048.000000pt" viewBox="0 0 2048.000000 2048.000000"
 preserveAspectRatio="xMidYMid meet">
<metadata>
Created by potrace 1.14, written by Peter Selinger 2001-2017
</metadata>
<g transform="translate(0.000000,2048.000000) scale(0.100000,-0.100000)"
fill="#000000" stroke="none">
<path d="M9830 20474 c-242 -13 -446 -27 -575 -40 -1936 -186 -3749 -905
-5288 -2097 -547 -423 -1080 -933 -1548 -1482 -1226 -1437 -2043 -3251 -2314
-5139 -66 -463 -94 -815 -102 -1311 -33 -2035 525 -3987 1628 -5702 735 -1143
1729 -2160 2859 -2925 1345 -911 2848 -1479 4450 -1682 715 -91 1504 -105
2220 -41 2122 193 4118 1038 5742 2432 920 790 1703 1753 2296 2824 125 226
352 691 455 934 415 977 676 2019 771 3075 54 590 54 1250 1 1850 -250 2822
-1669 5412 -3931 7171 -524 408 -1069 750 -1684 1058 -331 165 -509 245 -815
366 -993 393 -1978 614 -3090 695 -146 11 -944 21 -1075 14z m708 -969 c49
-21 81 -52 103 -100 45 -96 -1 -207 -103 -250 -92 -38 -195 5 -239 100 -44 94
-2 201 96 246 49 23 94 24 143 4z m-563 -29 c142 -109 65 -336 -114 -336 -79
0 -131 33 -167 105 -20 42 -25 65 -21 94 8 64 37 111 86 143 41 26 53 29 112
26 54 -3 73 -9 104 -32z m1185 -16 c22 -11 52 -39 67 -62 23 -34 28 -53 28
-103 0 -50 -5 -69 -28 -103 -51 -78 -161 -106 -247 -62 -57 29 -100 102 -100
169 1 35 32 103 61 131 56 53 149 66 219 30z m-1811 -23 c110 -73 109 -237 -2
-314 -54 -38 -143 -39 -200 -5 -87 55 -114 175 -58 263 57 90 171 114 260 56z
m2421 -58 c55 -31 90 -91 90 -156 0 -86 -39 -147 -113 -178 -64 -27 -150 -13
-200 33 -52 47 -74 160 -43 220 52 99 169 135 266 81z m-3016 -22 c96 -53 121
-192 49 -277 -104 -124 -309 -69 -330 89 -8 62 4 106 45 151 64 72 149 85 236
37z m3623 -104 c54 -43 76 -85 76 -147 0 -57 -12 -86 -52 -129 -39 -42 -79
-60 -137 -59 -109 1 -184 78 -184 188 0 111 83 187 197 181 52 -2 69 -8 100
-34z m-4239 -14 c105 -51 136 -198 59 -286 -62 -70 -146 -90 -224 -52 -143 69
-143 267 -1 338 55 27 110 27 166 0z m4836 -142 c89 -68 101 -196 27 -281 -45
-51 -146 -71 -214 -42 -57 23 -117 111 -117 171 0 55 48 131 105 167 47 30
150 22 199 -15z m-5418 -25 c36 -19 83 -80 94 -121 23 -86 -30 -189 -113 -220
-66 -25 -165 -4 -208 45 -96 109 -41 283 97 312 42 9 96 2 130 -16z m5952
-147 c49 -21 81 -52 103 -100 45 -96 -1 -207 -103 -250 -92 -38 -195 5 -239
100 -44 94 -2 201 96 246 49 23 94 24 143 4z m-6512 -60 c61 -36 89 -86 89
-160 0 -109 -76 -185 -185 -185 -100 0 -175 67 -187 168 -17 149 151 254 283
177z m7092 -184 c46 -23 67 -46 87 -94 27 -64 13 -150 -33 -200 -55 -61 -169
-76 -239 -30 -155 100 -89 343 94 343 33 0 68 -7 91 -19z m-7646 -61 c105 -71
115 -217 22 -299 -112 -99 -286 -34 -310 117 -12 76 33 155 111 197 43 23 133
16 177 -15z m8143 -191 c92 -25 151 -108 143 -200 -15 -150 -197 -223 -308
-123 -114 103 -76 280 70 322 47 14 49 14 95 1z m-8712 -73 c41 -17 91 -74
107 -121 26 -80 -19 -183 -96 -220 -190 -91 -366 151 -218 299 54 54 138 71
207 42z m9301 -263 c108 -76 106 -231 -3 -308 -37 -26 -52 -30 -105 -30 -53 0
-70 5 -104 29 -72 49 -102 151 -68 229 17 39 71 91 111 106 48 17 124 5 169
-26z m-9802 -72 c140 -89 104 -297 -59 -340 -134 -36 -266 103 -223 234 15 46
65 104 105 121 54 24 125 18 177 -15z m10251 -242 c84 -23 145 -115 135 -204
-17 -145 -197 -217 -305 -122 -90 79 -95 195 -13 277 54 54 110 70 183 49z
m-5242 -9 c55 0 69 -3 69 -15 0 -9 -7 -18 -15 -21 -8 -4 -15 -14 -15 -24 0
-32 330 -724 355 -745 14 -12 25 -24 25 -29 0 -10 -266 -4 -276 6 -4 5 0 16 9
26 15 16 14 23 -16 92 -31 72 -34 75 -72 81 -22 4 -111 9 -197 11 l-158 4 -41
-80 c-38 -71 -40 -80 -25 -91 32 -24 19 -38 -30 -31 -26 3 -75 6 -110 6 -67 0
-83 13 -45 37 11 7 63 97 117 200 53 103 135 259 181 347 46 87 83 166 83 176
0 10 -7 20 -15 24 -8 3 -15 13 -15 22 0 15 8 16 61 10 34 -3 93 -6 130 -6z
m856 -62 c74 -15 113 -27 113 -35 0 -7 -9 -13 -20 -13 -12 0 -24 -10 -30 -22
-13 -32 -122 -609 -116 -615 7 -7 497 -103 529 -103 15 0 30 7 33 15 4 8 13
15 21 15 15 0 14 -9 -13 -143 -8 -38 -14 -70 -14 -73 0 -2 -7 -4 -15 -4 -8 0
-15 7 -15 15 0 9 -10 20 -22 25 -18 8 -732 150 -753 150 -3 0 -5 7 -5 15 0 9
9 15 24 15 15 0 27 7 30 18 10 33 136 693 136 712 0 10 -9 22 -20 25 -27 8
-26 25 2 25 12 0 73 -10 135 -22z m-6377 -28 c118 -60 131 -234 25 -316 -30
-22 -50 -29 -101 -32 -86 -6 -141 25 -178 100 -14 28 -26 61 -26 72 0 70 55
156 115 182 45 20 120 17 165 -6z m4625 -6 c46 -9 73 -10 79 -4 13 13 26 13
26 -2 0 -10 -78 -187 -87 -198 -3 -3 -14 7 -25 22 -46 64 -264 85 -383 38 -76
-29 -165 -116 -183 -176 -39 -133 13 -265 130 -329 45 -25 67 -30 144 -33 66
-3 107 0 150 13 118 34 224 105 224 150 0 44 17 35 79 -39 64 -78 69 -86 49
-86 -6 0 -46 -22 -87 -49 -192 -126 -354 -164 -532 -127 -139 30 -252 115
-306 231 -25 54 -28 71 -28 170 0 98 3 116 26 165 102 217 397 320 724 254z
m2750 -196 c74 -20 115 -36 115 -45 0 -7 -9 -13 -20 -13 -12 0 -25 -10 -30
-22 -6 -13 -51 -175 -101 -362 -82 -308 -89 -340 -75 -355 36 -40 24 -40 -120
0 -75 21 -114 36 -114 45 0 8 9 14 19 14 11 0 23 5 26 10 4 6 49 169 101 363
82 306 92 353 79 363 -17 13 -20 34 -5 34 5 0 61 -14 125 -32z m3903 -89 c148
-72 128 -297 -31 -344 -183 -54 -320 158 -194 302 58 65 143 81 225 42z
m-8330 -74 c23 -47 42 -90 42 -96 0 -6 -11 -8 -29 -4 -24 5 -71 -15 -270 -114
-133 -67 -241 -123 -241 -126 0 -10 85 -175 90 -175 3 1 75 38 160 83 122 65
156 87 158 105 2 12 9 22 15 22 17 0 111 -190 99 -202 -5 -5 -14 -3 -22 7 -7
8 -24 15 -37 15 -26 0 -313 -146 -313 -158 1 -4 33 -68 73 -142 67 -125 75
-135 100 -133 15 1 27 -3 27 -10 0 -14 -229 -131 -238 -123 -3 4 0 17 7 29 12
22 -2 52 -156 353 -150 294 -171 329 -192 329 -14 0 -26 5 -28 10 -2 6 150 88
338 184 187 96 343 180 345 188 2 7 6 20 9 28 9 28 21 15 63 -70z m5075 -55
c117 -49 270 -114 342 -145 136 -58 154 -62 173 -43 8 8 15 9 22 2 7 -7 -3
-39 -28 -99 -36 -83 -62 -117 -62 -82 0 9 -6 22 -14 30 -23 23 -497 220 -506
211 -19 -20 -73 -165 -64 -173 13 -12 301 -131 316 -131 8 0 18 4 24 10 5 5
14 6 21 2 13 -8 -66 -207 -82 -207 -6 0 -11 12 -13 28 -2 15 -13 34 -25 42
-18 12 -211 97 -284 125 -20 8 -25 -1 -82 -133 -34 -78 -61 -148 -61 -155 0
-7 7 -15 15 -18 15 -6 21 -34 7 -34 -19 0 -236 97 -239 107 -3 7 8 13 22 15
25 3 37 26 173 346 136 322 144 343 128 360 -13 16 -13 32 1 32 2 0 99 -40
216 -90z m-8500 56 c44 -18 94 -77 107 -127 37 -137 -92 -266 -228 -230 -140
38 -188 213 -86 315 54 54 138 71 207 42z m3982 -206 c75 -71 38 -193 -62
-207 -98 -13 -164 87 -118 177 8 16 28 36 43 45 37 21 107 14 137 -15z m8233
-131 c119 -58 136 -225 32 -312 -84 -72 -220 -49 -278 46 -99 160 75 348 246
266z m-6289 -67 c9 -17 31 -86 204 -644 l71 -228 476 0 c357 0 479 -3 488 -12
7 -7 12 -24 12 -39 0 -35 -2 -37 -425 -339 -187 -134 -343 -246 -348 -250 -4
-4 56 -198 133 -432 77 -234 140 -437 140 -451 0 -25 -31 -57 -56 -57 -6 0
-175 119 -374 264 l-364 263 -105 -77 c-340 -247 -585 -423 -610 -437 -27 -16
-30 -16 -55 0 -15 10 -26 27 -26 40 0 12 63 215 141 451 77 236 137 432 132
436 -4 5 -172 126 -373 270 -201 144 -373 269 -382 277 -22 20 -23 56 -2 77
14 14 71 16 482 16 l467 0 140 431 c77 238 146 438 153 445 20 20 69 18 81 -4z
m-6369 -21 c105 -56 134 -200 58 -287 -42 -48 -80 -65 -143 -65 -63 0 -101 17
-143 65 -103 117 -14 306 143 306 30 0 64 -8 85 -19z m9954 -77 c92 -24 204
-86 270 -151 142 -139 200 -296 162 -443 -60 -232 -269 -344 -520 -280 -103
26 -186 72 -265 145 -206 192 -238 439 -80 619 45 51 107 91 172 111 58 19
187 18 261 -1z m-6973 -101 c158 -74 250 -246 220 -411 -19 -104 -65 -186
-151 -272 -257 -258 -650 -243 -783 30 -84 171 -43 344 118 506 128 129 268
187 441 180 77 -3 102 -8 155 -33z m10104 -168 c96 -56 119 -191 48 -275 -104
-124 -309 -69 -330 89 -8 62 4 106 45 151 65 72 152 86 237 35z m-13512 -91
c69 -35 107 -95 107 -169 0 -60 -19 -103 -63 -142 -83 -73 -190 -64 -265 22
-38 43 -46 69 -40 140 5 63 39 115 96 145 46 24 122 26 165 4z m11470 -351
c117 -98 233 -200 259 -227 117 -121 126 -244 26 -352 -71 -77 -171 -94 -268
-44 -23 12 -43 20 -45 18 -1 -2 -10 -88 -19 -192 -14 -172 -14 -191 0 -207 17
-19 3 -35 -20 -22 -36 22 -204 169 -202 178 2 6 12 9 24 7 11 -2 22 1 25 5 3
4 10 69 16 143 6 74 13 151 16 170 4 33 0 38 -67 95 -39 33 -79 66 -89 72 -15
11 -28 1 -106 -92 -92 -111 -102 -127 -83 -150 16 -19 -6 -30 -28 -13 -69 53
-182 151 -182 157 0 16 13 19 31 8 23 -14 -3 -42 273 288 124 149 226 278 226
287 0 9 -5 20 -10 23 -10 6 -5 25 6 25 3 0 100 -80 217 -177z m2453 -29 c50
-40 74 -88 74 -149 0 -157 -189 -246 -306 -143 -48 42 -67 83 -67 143 0 57 18
97 60 137 41 39 70 48 140 45 52 -2 68 -8 99 -33z m-14306 -93 c105 -56 134
-200 58 -287 -42 -47 -77 -64 -138 -64 -65 0 -108 18 -147 63 -103 118 -16
307 142 307 30 0 64 -8 85 -19z m2370 -91 c0 -5 -5 -20 -11 -33 -9 -19 -2 -81
30 -293 l42 -268 81 -86 c114 -120 129 -132 145 -126 43 17 26 -16 -48 -90
-85 -86 -116 -103 -106 -61 4 18 -14 43 -97 130 l-102 107 -269 49 c-199 36
-275 47 -294 40 -13 -6 -31 -7 -39 -4 -10 3 22 40 99 114 63 59 119 109 124
109 6 1 9 -12 7 -28 -3 -26 1 -30 35 -39 81 -21 303 -64 308 -59 6 6 -42 345
-51 359 -3 5 -14 4 -26 -2 -12 -7 -24 -7 -29 -2 -6 6 27 45 86 101 91 87 115
104 115 82z m514 -81 c43 -37 54 -81 33 -132 -20 -47 -60 -72 -115 -72 -38 0
-48 5 -78 37 -28 32 -34 45 -34 84 0 39 5 51 34 80 29 29 41 34 80 34 36 0 52
-6 80 -31z m3028 -126 c25 -23 23 -68 -4 -87 -20 -14 -104 -16 -715 -16 -680
0 -693 0 -713 20 -31 31 -25 65 15 88 14 8 214 11 709 12 628 0 691 -1 708
-17z m3816 1 c26 -18 29 -60 5 -86 -15 -17 -50 -18 -690 -18 -660 0 -673 0
-693 20 -26 26 -25 46 5 75 l24 25 663 0 c584 0 666 -2 686 -16z m4920 -85
c29 -15 54 -37 74 -68 26 -41 29 -53 26 -107 -5 -80 -35 -125 -106 -161 -40
-19 -62 -24 -92 -20 -87 11 -148 65 -170 149 -21 77 24 168 102 207 55 27 110
27 166 0z m-15035 -90 c162 -45 183 -276 32 -349 -191 -92 -365 150 -215 300
54 54 110 70 183 49z m6645 -77 c17 -22 15 -56 -5 -74 -12 -11 -304 -68 -873
-172 -470 -85 -1104 -201 -1409 -257 l-555 -102 -23 27 c-28 33 -28 38 -5 66
16 20 94 36 752 157 404 74 1037 190 1405 257 369 68 677 121 685 118 8 -3 21
-12 28 -20z m2142 -37 c173 -30 725 -126 1225 -214 501 -88 1007 -176 1125
-197 118 -20 225 -43 238 -51 28 -17 29 -63 2 -88 -18 -17 -49 -12 -797 119
-428 75 -1088 191 -1468 258 -469 82 -696 126 -708 136 -39 35 0 108 51 96 10
-2 159 -28 332 -59z m4265 -80 c42 -57 74 -109 70 -115 -3 -6 -10 -8 -15 -5
-4 3 -13 -2 -19 -9 -11 -13 -135 -676 -128 -683 2 -1 97 65 211 148 188 137
207 154 202 175 -12 47 19 24 78 -58 65 -90 74 -115 39 -110 -17 2 -105 -57
-315 -209 -161 -117 -295 -214 -297 -216 -2 -2 -5 -13 -6 -25 -1 -12 -6 -23
-11 -25 -5 -2 -42 42 -82 97 -68 93 -82 127 -47 114 9 -4 18 3 24 18 10 22
133 700 128 704 -1 1 -99 -69 -217 -155 -162 -119 -215 -162 -215 -178 0 -43
-15 -33 -79 54 -71 96 -80 119 -42 109 20 -5 64 23 248 155 344 249 373 272
376 297 2 12 7 22 12 22 5 0 43 -47 85 -105z m-10987 -219 c39 -32 72 -62 72
-67 0 -5 -13 -9 -29 -9 -24 0 -41 -16 -110 -100 -45 -55 -83 -105 -86 -112 -2
-8 100 -96 238 -208 183 -148 249 -195 269 -195 16 0 29 -4 29 -8 2 -16 -143
-189 -151 -180 -4 4 -10 17 -12 27 -2 11 -108 106 -247 218 -134 109 -245 198
-247 198 -2 0 -42 -48 -89 -107 -64 -79 -85 -113 -82 -129 2 -13 1 -27 -2 -33
-7 -11 -166 115 -166 132 0 7 11 12 24 12 25 0 45 22 372 429 94 117 119 154
115 171 -3 12 -3 25 1 28 7 8 3 11 101 -67z m4484 37 c22 -20 23 -51 2 -74
-18 -20 -25 -22 -559 -193 -198 -63 -578 -185 -845 -271 -266 -85 -493 -155
-504 -155 -48 0 -73 62 -38 92 9 9 294 105 632 213 338 108 759 244 935 300
176 57 329 104 339 104 11 1 28 -6 38 -16z m2912 -274 c512 -160 941 -297 954
-305 31 -20 30 -68 -2 -89 -23 -16 -65 -3 -967 279 -1043 326 -1011 313 -958
380 11 14 25 26 31 26 6 0 430 -131 942 -291z m5922 221 c111 -69 112 -245 2
-317 -59 -40 -147 -40 -206 0 -130 85 -101 290 47 338 40 13 119 2 157 -21z
m-15688 -95 c75 -32 114 -90 116 -170 1 -66 -28 -121 -83 -160 -35 -25 -52
-30 -99 -30 -169 0 -255 196 -139 315 58 59 131 75 205 45z m6776 -191 c20
-20 21 -58 1 -77 -35 -35 -394 -247 -419 -247 -34 0 -63 42 -49 72 11 25 399
267 430 268 12 0 29 -7 37 -16z m2341 -100 c105 -64 198 -123 208 -132 34 -30
8 -92 -40 -92 -22 0 -366 203 -410 243 -13 11 -23 29 -23 40 0 28 28 57 54 57
12 0 107 -52 211 -116z m-1245 -44 c19 -19 20 -33 20 -207 0 -206 -5 -223 -61
-223 -53 0 -59 24 -59 223 0 176 0 178 25 202 29 30 49 31 75 5z m8083 -84
c78 -32 129 -134 108 -214 -16 -60 -37 -89 -88 -119 -37 -22 -53 -25 -107 -21
-77 5 -128 38 -157 102 -71 156 86 319 244 252z m-8377 -27 c18 -20 18 -23 1
-86 -21 -79 -31 -93 -68 -93 -31 0 -59 23 -59 49 0 31 30 120 46 136 22 21 57
19 80 -6z m587 4 c8 -10 23 -44 32 -76 16 -54 16 -60 0 -83 -13 -20 -23 -25
-48 -22 -25 2 -36 10 -49 39 -28 55 -34 122 -13 142 21 22 58 22 78 0z m-8444
-97 c39 -21 87 -77 101 -121 37 -113 -55 -235 -177 -235 -121 0 -203 90 -190
206 6 57 47 118 94 143 46 24 132 27 172 7z m4816 -40 c24 -10 46 -34 75 -80
69 -110 94 -126 296 -196 193 -66 288 -84 459 -83 241 0 424 24 935 120 l305
57 215 0 c231 0 316 -10 487 -60 178 -51 318 -126 426 -226 l57 -54 0 -3329 0
-3330 -27 35 c-125 160 -299 284 -478 340 -160 50 -448 34 -795 -44 l-101 -23
-29 41 c-32 46 -83 96 -150 146 -25 19 -146 134 -270 256 -124 121 -262 249
-308 282 -163 121 -348 211 -582 285 -102 32 -165 59 -210 88 -100 65 -161 89
-240 96 l-70 6 0 2662 0 2661 -28 27 c-22 21 -31 24 -40 15 -9 -9 -12 -624
-12 -2695 0 -2138 -3 -2684 -12 -2688 -7 -2 -30 -6 -50 -10 l-38 -6 0 2646 0
2646 -40 -32 -40 -32 -2 -2621 -3 -2621 -52 -3 -53 -3 0 2580 c0 1420 -2 2581
-5 2581 -3 0 -21 -10 -40 -22 l-35 -23 0 -2551 0 -2551 -31 -7 c-17 -3 -42 -6
-55 -6 l-24 0 0 2525 c0 1389 -2 2525 -5 2525 -2 0 -20 -8 -40 -17 l-35 -17 0
-2523 c0 -2225 -2 -2523 -15 -2523 -8 0 -62 -16 -119 -35 -58 -19 -107 -35
-110 -35 -4 0 -6 1171 -6 2603 0 2537 1 2603 19 2633 14 23 55 50 158 104 233
122 362 220 538 409 55 59 101 90 133 91 7 0 28 -6 47 -14z m6689 -17 c13 -6
67 -60 120 -119 170 -192 335 -302 556 -370 159 -49 140 193 140 -1779 0 -930
-4 -1691 -8 -1691 -15 0 -40 25 -66 67 -29 47 -57 69 -113 88 -29 10 -40 21
-50 50 -18 53 -35 200 -31 281 1 38 2 679 0 1425 -2 1282 -3 1357 -19 1362
-10 2 -26 8 -35 12 -17 7 -18 -61 -18 -1338 0 -1273 -1 -1346 -17 -1351 -10
-3 -35 -8 -55 -12 l-38 -6 0 1380 0 1380 -34 21 c-18 12 -36 21 -40 21 -3 0
-6 -632 -6 -1405 l0 -1405 -55 0 -55 0 -1 1448 -1 1447 -39 34 -39 33 0 -1482
c0 -1347 -1 -1482 -16 -1476 -9 3 -31 6 -50 6 l-34 0 0 1524 c0 1355 -2 1525
-15 1536 -13 11 -20 9 -40 -10 l-25 -23 0 -1500 c0 -1424 -1 -1499 -17 -1492
-10 4 -43 9 -74 12 -71 7 -116 -13 -186 -83 -85 -84 -135 -205 -147 -354 -8
-95 -29 -129 -146 -245 -141 -139 -187 -241 -178 -396 4 -64 11 -91 45 -161
73 -151 169 -256 332 -363 63 -42 78 -57 89 -90 26 -78 -1 -159 -97 -289 -57
-77 -66 -101 -58 -152 16 -100 144 -182 347 -224 l85 -17 3 -183 2 -183 -57 7
c-128 15 -308 92 -491 212 -180 118 -250 140 -397 131 -114 -8 -153 1 -295 68
-226 105 -302 119 -635 120 -258 0 -321 -9 -430 -59 -100 -45 -175 -141 -175
-224 0 -51 15 -68 84 -101 87 -42 101 -71 93 -195 -12 -196 -109 -362 -335
-577 -87 -82 -108 -97 -168 -117 -143 -49 -319 -182 -432 -327 l-31 -40 -1
3336 0 3336 21 27 c27 34 120 105 189 144 211 119 487 178 795 169 155 -4 200
-10 498 -65 385 -72 552 -96 772 -113 297 -22 540 12 742 102 83 37 124 75
166 153 45 85 105 115 171 85z m2842 -102 c60 -102 67 -131 26 -106 -17 10
-62 -13 -338 -173 -283 -164 -319 -187 -322 -211 -2 -15 -9 -27 -15 -27 -17 0
-137 213 -126 224 5 5 14 4 23 -3 8 -7 21 -11 29 -9 7 2 154 84 325 183 294
169 312 181 312 208 0 48 21 27 86 -86z m-12398 -4 c-3 -25 19 -42 302 -234
168 -114 311 -206 318 -203 6 2 19 7 27 10 27 11 16 -15 -52 -116 -62 -94 -92
-119 -85 -73 1 10 -5 26 -15 35 -10 8 -150 103 -311 212 -259 174 -294 195
-312 184 -41 -26 -30 5 36 107 69 105 97 129 92 78z m10373 -133 c181 -54 338
-104 350 -110 16 -9 19 -19 17 -48 -6 -68 -19 -67 -365 38 -169 51 -322 97
-340 102 -40 11 -63 33 -63 60 0 28 28 58 52 58 11 0 168 -45 349 -100z
m-8221 0 c23 -23 26 -49 8 -72 -19 -24 -504 -181 -534 -174 -14 4 -30 18 -36
31 -23 51 -1 63 263 152 134 44 252 82 262 82 9 1 26 -8 37 -19z m12396 -136
c81 -38 126 -132 105 -214 -24 -91 -93 -144 -186 -143 -111 1 -192 89 -183
199 11 130 149 213 264 158z m-16724 -140 c172 -122 46 -391 -156 -334 -112
31 -168 158 -116 265 49 102 179 135 272 69z m1978 -104 c33 -49 60 -94 60
-100 0 -6 -10 -8 -25 -4 -57 14 -188 -103 -245 -220 -20 -41 -34 -86 -37 -124
-5 -52 -3 -62 16 -81 12 -12 34 -21 53 -21 43 0 85 47 173 191 119 195 214
273 314 254 147 -28 221 -149 193 -315 -27 -161 -122 -335 -237 -436 -36 -32
-65 -66 -65 -76 0 -10 -6 -18 -13 -18 -15 0 -143 159 -130 161 4 1 17 0 29 0
24 -2 100 53 147 106 80 90 129 201 130 295 1 43 -3 54 -27 74 -15 13 -36 24
-48 24 -33 0 -89 -66 -165 -195 -39 -66 -90 -142 -113 -168 -82 -92 -171 -113
-272 -64 -94 46 -134 128 -125 257 9 139 82 277 222 420 41 41 79 87 84 103 6
15 13 27 15 27 3 0 33 -40 66 -90z m12069 -129 c14 -8 734 -71 804 -71 9 0 19
11 23 25 3 14 12 25 19 25 15 0 107 -238 94 -245 -4 -3 -17 0 -27 6 -12 7 -25
8 -35 3 -35 -20 -536 -589 -542 -616 -4 -15 -12 -28 -18 -28 -9 0 -60 120
-105 249 -4 10 2 12 24 7 34 -7 36 -6 98 62 l49 52 -69 181 c-54 141 -73 181
-89 184 -11 2 -50 7 -87 10 -66 6 -68 6 -78 -19 -5 -14 -13 -26 -17 -26 -6 0
-44 92 -81 198 -5 14 12 16 37 3z m2911 -201 c87 -44 123 -156 80 -245 -62
-129 -244 -142 -326 -23 -24 34 -29 51 -29 103 0 50 5 69 27 103 16 23 45 50
65 61 51 27 132 27 183 1z m-17212 -115 c124 -53 162 -204 74 -299 -58 -62
-144 -81 -217 -47 -111 50 -145 182 -74 281 51 71 139 97 217 65z m17418 -481
c57 -46 76 -88 72 -161 -3 -51 -9 -69 -34 -100 -39 -49 -87 -73 -146 -73 -58
0 -95 13 -131 48 -42 40 -60 80 -60 137 0 57 18 97 60 137 41 39 70 48 140 45
52 -2 68 -8 99 -33z m-15569 -42 c44 -23 89 -71 105 -111 5 -14 13 -54 16 -88
l7 -61 175 63 c116 43 180 71 189 85 20 31 34 25 27 -12 -16 -80 -69 -258 -77
-258 -5 0 -14 11 -19 25 l-9 25 -93 -34 c-204 -74 -230 -84 -235 -90 -8 -8
-62 -210 -58 -215 8 -8 250 -71 273 -71 12 0 25 7 28 15 9 22 37 19 30 -2 -3
-10 -17 -61 -31 -113 -14 -52 -28 -103 -31 -112 -3 -10 -12 -18 -19 -18 -8 0
-12 6 -9 14 3 7 -1 20 -9 27 -7 8 -172 56 -366 108 l-353 94 -18 -23 c-11 -14
-20 -19 -24 -12 -8 14 138 561 168 627 30 66 81 124 131 147 51 24 143 19 202
-10z m11707 -303 c281 -172 521 -321 534 -332 12 -11 22 -28 22 -37 0 -26 -30
-60 -53 -60 -31 0 -1069 634 -1086 664 -13 21 -13 27 2 50 11 17 26 26 43 26
16 0 216 -116 538 -311z m-13727 250 c60 -22 122 -109 123 -169 1 -123 -119
-220 -233 -189 -131 34 -187 181 -111 290 46 66 145 97 221 68z m4390 -33 c58
-50 68 -42 -662 -477 -368 -219 -679 -399 -689 -399 -41 0 -70 52 -48 87 10
16 1347 813 1364 813 4 0 19 -11 35 -24z m10962 -121 c16 -8 36 -31 46 -51 60
-126 -104 -232 -196 -126 -28 32 -31 40 -26 86 3 40 11 55 36 78 36 32 93 38
140 13z m2347 -314 c117 -53 145 -210 53 -302 -58 -58 -133 -73 -204 -40 -103
48 -143 156 -95 256 44 91 152 129 246 86z m-17804 -151 c61 -41 83 -84 83
-160 0 -58 -4 -71 -29 -104 -76 -100 -201 -111 -287 -25 -90 90 -66 237 50
300 50 27 136 22 183 -11z m16012 -326 c38 -152 71 -306 74 -343 12 -171 -61
-281 -188 -281 -52 0 -87 18 -132 68 l-35 38 -12 -58 c-9 -47 -21 -68 -54
-102 -80 -83 -186 -87 -275 -11 -65 57 -94 131 -172 445 -39 157 -73 293 -76
303 -7 23 22 23 35 0 9 -17 38 -11 372 72 212 53 363 95 365 103 11 37 14 42
21 42 5 0 39 -124 77 -276z m-14360 -64 c39 -6 72 -13 75 -16 3 -3 -5 -13 -18
-23 -21 -16 -25 -37 -57 -286 -18 -148 -31 -271 -29 -274 12 -11 187 -27 191
-16 2 5 12 82 23 170 19 162 17 195 -14 195 -8 0 -15 7 -15 15 0 18 7 18 132
1 93 -12 128 -23 101 -33 -45 -16 -52 -35 -72 -202 -11 -91 -18 -167 -16 -170
6 -5 207 -32 211 -28 5 5 64 497 64 531 0 23 -5 39 -15 42 -8 4 -15 13 -15 21
0 12 8 14 38 10 20 -4 68 -9 105 -13 37 -4 70 -11 73 -16 3 -5 -4 -16 -16 -26
-20 -16 -26 -49 -68 -395 -25 -207 -50 -377 -55 -377 -6 0 -15 7 -21 15 -17
24 -731 111 -763 94 -13 -7 -25 -10 -27 -8 -2 2 17 171 42 376 43 351 45 373
29 391 -9 10 -17 22 -17 25 0 10 53 8 134 -3z m16264 -71 c119 -58 136 -225
32 -312 -38 -32 -101 -50 -143 -41 -51 10 -104 41 -126 72 -115 162 58 367
237 281z m-4431 -109 c53 -32 66 -61 60 -135 -6 -76 -25 -111 -72 -131 -31
-13 -40 -12 -90 7 -31 11 -62 31 -71 44 -21 33 -21 132 0 174 30 57 114 78
173 41z m-13576 -35 c63 -41 97 -127 78 -198 -45 -170 -273 -198 -349 -43 -49
102 -2 224 102 263 48 18 124 8 169 -22z m14389 -263 c40 -30 51 -61 47 -129
-3 -71 -19 -94 -75 -111 -45 -14 -111 -1 -129 24 -34 46 -42 138 -17 185 29
58 117 73 174 31z m-9805 -7 c14 -13 25 -32 25 -42 0 -10 -315 -333 -742 -760
-795 -795 -775 -777 -813 -719 -11 17 -13 30 -6 47 12 30 1481 1499 1499 1499
7 0 24 -11 37 -25z m8985 -134 c0 -9 -7 -38 -15 -66 -26 -84 -4 -127 70 -140
88 -16 111 -53 124 -204 9 -112 24 -146 70 -156 37 -8 80 11 146 66 55 45 90
64 210 109 93 35 149 76 166 125 7 19 17 35 21 35 15 0 48 -83 48 -118 0 -19
-9 -47 -21 -63 -29 -41 -130 -110 -229 -156 -103 -48 -148 -91 -306 -289 -252
-314 -332 -346 -583 -230 -134 62 -224 90 -340 106 -76 11 -165 50 -180 79 -5
9 -11 36 -15 59 -10 65 -42 119 -113 193 l-63 66 152 -4 c169 -5 250 -16 284
-38 12 -8 33 -33 46 -56 41 -74 94 -98 214 -99 81 0 178 31 252 80 98 65 142
138 142 233 0 64 -18 92 -86 132 -84 49 -114 168 -74 291 13 38 27 78 33 88 9
19 10 19 28 -3 11 -13 19 -31 19 -40z m4515 -46 c79 -46 111 -157 69 -241 -63
-125 -235 -140 -321 -28 -34 45 -44 143 -20 190 54 104 172 138 272 79z
m-18157 -116 c105 -51 136 -198 59 -286 -78 -89 -195 -95 -276 -14 -151 151
24 393 217 300z m12362 -9 c64 -19 102 -22 255 -24 99 0 193 3 210 7 29 8 29
8 10 -12 -28 -32 -133 -80 -200 -92 -138 -24 -180 -54 -179 -127 0 -52 50
-146 113 -214 29 -32 49 -58 45 -58 -5 0 -51 5 -103 10 -160 17 -252 -19 -371
-146 -74 -79 -112 -144 -147 -249 -47 -142 -31 -379 33 -494 13 -24 23 -46 21
-48 -9 -8 -129 81 -189 141 -76 75 -133 157 -166 240 -21 51 -24 72 -20 140 6
123 34 173 171 315 127 130 140 155 153 290 12 137 72 258 158 322 48 35 81
35 206 -1z m4011 -142 c0 -35 8 -204 18 -376 17 -312 17 -314 41 -332 14 -10
22 -21 19 -25 -4 -3 -52 -8 -108 -12 -105 -6 -120 -1 -86 33 8 9 15 30 15 47
-2 93 -28 508 -32 513 -3 2 -47 2 -98 -2 l-93 -7 7 -165 c4 -90 10 -171 13
-179 3 -8 16 -19 29 -24 60 -22 3 -39 -133 -39 -79 0 -114 12 -73 25 37 12 41
35 30 207 -5 90 -10 165 -10 167 0 4 -212 -8 -217 -12 -1 -2 5 -124 13 -271
14 -253 21 -306 44 -306 6 0 10 -6 10 -14 0 -10 -25 -15 -102 -19 -57 -2 -107
-1 -111 3 -5 4 0 17 12 29 17 17 20 29 15 83 -6 85 -34 620 -34 663 0 37 12
44 36 21 8 -9 28 -13 51 -10 21 2 184 11 363 20 249 12 328 19 340 30 30 29
40 17 41 -48z m-3471 -28 c0 -30 6 -81 14 -112 l13 -58 -113 0 c-130 0 -200
12 -246 44 -62 42 -43 79 46 90 70 8 174 46 229 85 50 34 57 29 57 -49z
m-11285 -58 c7 -24 -8 -17 413 -183 301 -119 355 -137 372 -127 10 7 21 10 23
8 3 -3 8 -58 11 -123 l8 -119 -29 6 c-24 6 -86 -24 -378 -177 -302 -159 -352
-188 -365 -215 -26 -53 -37 -38 -44 60 -12 181 -7 211 30 173 14 -13 20 -12
57 6 67 34 398 209 446 237 l44 25 -269 108 c-148 60 -277 109 -287 109 -11 0
-21 -9 -24 -20 -3 -11 -12 -20 -19 -20 -11 0 -14 17 -14 68 0 37 -3 97 -7 135
-5 57 -4 67 10 67 9 0 18 -8 22 -18z m16561 -267 c55 -32 99 -116 91 -174 -18
-138 -156 -213 -277 -151 -93 48 -126 179 -68 268 55 82 168 107 254 57z
m-3669 -107 c145 -125 522 -472 527 -484 14 -37 -35 -86 -73 -72 -6 1 -136
117 -290 256 -244 220 -281 257 -281 282 0 28 30 60 57 60 6 0 33 -19 60 -42z
m-2009 16 l22 -6 0 -489 0 -488 -37 5 c-21 3 -44 7 -50 10 -10 3 -13 109 -13
489 l0 485 28 0 c15 0 37 -3 50 -6z m-12498 -38 c101 -67 116 -202 31 -287
-72 -73 -180 -77 -253 -11 -109 98 -86 250 47 314 52 24 124 18 175 -16z
m12340 -441 c0 -386 -2 -465 -14 -465 -7 0 -45 16 -84 35 -119 60 -172 142
-193 299 -25 190 26 356 150 490 37 39 123 106 138 106 2 0 3 -209 3 -465z
m300 455 c5 0 22 -12 39 -26 l31 -26 0 -438 c0 -490 8 -441 -72 -456 l-38 -6
0 482 c0 436 2 482 16 476 9 -3 19 -6 24 -6z m210 -239 l45 -27 3 -307 2 -306
-52 -16 c-28 -8 -53 -15 -55 -15 -2 0 -3 158 -3 350 0 193 3 350 8 349 4 0 27
-13 52 -28z m307 -77 l83 -26 0 -219 0 -218 -42 -11 c-24 -6 -79 -22 -124 -36
-44 -13 -85 -24 -92 -24 -9 0 -12 71 -12 286 l0 287 52 -6 c29 -4 89 -18 135
-33z m4991 -185 c80 -39 122 -144 93 -232 -16 -47 -79 -103 -132 -117 -136
-37 -266 92 -229 228 31 117 158 174 268 121z m-2558 -58 c0 -11 4 -23 10 -26
8 -5 665 -55 728 -55 15 0 26 7 29 20 5 17 33 30 33 15 0 -78 -44 -591 -56
-643 -24 -112 -87 -185 -174 -200 -147 -26 -251 43 -284 190 l-11 47 -160 -97
c-97 -59 -164 -106 -170 -119 -5 -13 -16 -23 -23 -23 -11 0 -13 18 -8 88 13
174 17 202 32 202 8 0 14 -7 14 -15 0 -28 33 -15 175 72 l142 87 7 74 c3 41 6
92 6 113 0 37 0 37 -47 43 -27 3 -94 8 -150 12 -97 6 -101 5 -108 -15 -8 -26
-39 -29 -31 -3 2 9 8 70 11 135 5 90 10 117 21 117 8 0 14 -9 14 -19z m-15618
-51 c107 -30 166 -154 123 -257 -30 -72 -93 -113 -170 -113 -60 0 -103 19
-142 63 -94 107 -48 266 87 305 47 14 59 14 102 2z m2502 -57 c3 -16 8 -57 11
-93 3 -36 8 -82 11 -102 6 -43 -7 -50 -34 -19 -17 19 -24 18 -376 -20 -198
-21 -365 -40 -373 -43 -7 -3 -13 -12 -13 -21 0 -8 -6 -15 -14 -15 -10 0 -16
31 -25 120 -13 129 -9 157 19 120 l17 -23 354 37 c195 21 362 39 371 42 9 3
20 14 23 25 9 27 23 24 29 -8z m11014 -188 c74 -18 345 -105 340 -110 -1 -2
-43 -13 -92 -24 -105 -25 -243 -88 -347 -158 -41 -28 -144 -108 -229 -177
-279 -229 -341 -258 -562 -264 -333 -9 -618 82 -618 198 0 11 26 55 58 98 77
103 105 170 106 250 1 58 3 63 21 57 152 -44 174 -48 305 -49 162 -1 245 16
538 106 294 90 362 101 480 73z m-8832 -201 c16 -15 24 -32 21 -44 -9 -33
-1048 -1468 -1067 -1473 -31 -8 -65 15 -68 48 -2 25 76 139 508 740 281 391
522 720 536 733 32 28 39 28 70 -4z m9509 -15 c83 -25 136 -73 180 -162 61
-125 102 -343 90 -482 -23 -269 -204 -688 -443 -1020 -135 -188 -217 -262
-364 -329 -168 -77 -307 -90 -774 -74 -282 9 -375 9 -535 -2 -295 -22 -343
-20 -412 12 -32 15 -127 72 -210 127 -258 168 -325 194 -518 206 -167 10 -276
35 -539 124 -129 43 -269 85 -310 91 -106 18 -364 3 -464 -27 -11 -3 6 24 45
71 149 177 216 350 207 528 -6 105 -39 160 -122 202 -54 28 -57 32 -52 59 14
69 85 125 205 160 84 25 396 35 550 18 143 -16 206 -34 351 -101 173 -80 183
-82 329 -81 162 1 196 -9 344 -104 226 -145 372 -210 530 -235 100 -16 189 -9
360 29 178 40 233 39 448 -5 119 -24 204 -36 269 -37 89 -2 100 0 178 35 120
53 187 95 263 166 119 111 160 197 160 337 0 171 -51 296 -166 411 l-73 73 71
15 c40 9 88 17 107 20 68 7 236 -7 295 -25z m3938 -23 c55 -29 90 -93 90 -161
0 -100 -71 -176 -171 -183 -78 -6 -132 21 -173 86 -27 42 -30 54 -27 108 3 48
10 69 32 98 64 85 155 104 249 52z m-15578 -8 c8 -34 45 -219 45 -225 0 -2
-12 -2 -28 1 -26 6 -35 -5 -236 -289 -114 -163 -207 -298 -205 -300 2 -1 120
20 263 47 219 43 259 54 263 69 3 11 11 19 18 19 12 0 60 -208 49 -219 -2 -3
-14 0 -24 7 -16 9 -85 -1 -377 -58 -197 -39 -361 -70 -365 -70 -4 0 -10 -9
-13 -21 -13 -41 -30 -10 -52 97 -30 146 -29 153 3 151 24 -2 46 27 224 278
117 165 192 281 185 283 -14 3 -473 -86 -487 -94 -4 -3 -8 -14 -8 -25 0 -10
-6 -19 -14 -19 -9 0 -20 35 -35 110 -23 116 -21 142 8 116 16 -14 51 -9 377
54 296 57 362 73 374 89 20 26 28 26 35 -1z m-2456 -108 c139 -70 143 -262 8
-332 -86 -45 -177 -24 -241 55 -28 35 -31 46 -31 106 0 56 4 74 27 108 50 76
157 104 237 63z m13171 -485 c0 -179 -2 -325 -4 -325 -13 0 -249 51 -257 55
-5 4 -9 92 -9 199 l0 194 88 65 c48 36 105 81 127 101 22 19 43 35 48 36 4 0
7 -146 7 -325z m-340 -85 l0 -170 -55 0 -55 0 0 149 0 149 48 20 c26 11 50 21
55 21 4 1 7 -75 7 -169z m2589 127 c8 -20 43 -30 370 -106 341 -78 363 -82
381 -66 31 28 32 2 5 -114 -14 -60 -25 -112 -25 -115 0 -3 -7 -3 -15 0 -8 4
-15 12 -15 20 0 7 -17 18 -37 23 -66 17 -254 61 -264 61 -12 0 -1 -24 106
-248 88 -181 89 -183 117 -177 23 5 28 3 28 -12 -2 -42 -68 -297 -78 -301 -7
-2 -12 5 -12 15 0 20 -210 463 -219 463 -18 -1 -482 -253 -513 -279 -38 -32
-64 -40 -55 -18 2 6 17 69 33 140 18 83 32 127 41 127 7 0 13 -4 13 -10 0 -5
7 -10 16 -10 14 0 394 198 394 205 0 11 -70 155 -75 155 -4 0 -56 11 -116 25
-89 21 -112 23 -128 13 -11 -7 -22 -10 -25 -7 -4 4 36 192 49 227 7 18 14 15
24 -11z m2523 -37 c136 -92 103 -298 -54 -340 -137 -37 -272 102 -228 235 15
46 65 104 105 122 45 20 136 12 177 -17z m-5492 -144 c0 -181 6 -166 -67 -181
l-33 -7 0 176 0 176 50 0 50 0 0 -164z m190 20 l0 -144 -50 -11 c-28 -6 -53
-11 -55 -11 -3 0 -5 70 -5 155 l0 155 55 0 55 0 0 -144z m-6848 110 c25 -7 65
-27 89 -43 75 -52 159 -89 309 -137 218 -70 426 -179 575 -299 28 -23 147
-136 265 -252 118 -117 247 -237 287 -268 121 -96 144 -138 213 -402 90 -342
157 -451 364 -590 128 -86 212 -173 290 -304 102 -168 166 -214 396 -284 160
-49 229 -76 354 -140 154 -80 216 -92 431 -83 93 3 192 11 220 16 87 18 168
63 237 132 82 84 99 95 253 164 282 126 302 153 291 397 -7 160 -21 149 134
117 271 -55 535 -199 594 -325 23 -48 48 -260 44 -370 -2 -71 -8 -101 -27
-140 -33 -66 -120 -151 -206 -200 -50 -29 -108 -79 -205 -176 -146 -147 -221
-201 -345 -252 -71 -28 -93 -44 -190 -137 -146 -140 -199 -164 -465 -209 -283
-48 -561 -48 -831 0 -63 11 -188 24 -279 29 -262 14 -347 46 -626 233 -185
125 -279 176 -369 202 -84 25 -130 73 -271 285 -147 223 -195 278 -314 359
-49 34 -113 85 -140 113 -133 135 -230 343 -294 631 -32 140 -52 194 -105 282
-210 345 -655 645 -1051 710 -343 55 -829 -35 -1080 -200 -46 -30 -85 -54 -86
-52 -2 2 40 57 93 122 185 231 233 326 233 460 0 77 -12 124 -42 167 -26 37
-23 96 7 140 54 79 261 185 480 244 85 23 118 27 222 26 86 0 160 6 255 23
157 27 228 30 290 11z m-5689 -112 c77 -39 111 -99 105 -186 -5 -66 -40 -121
-99 -150 -41 -22 -129 -24 -167 -4 -31 16 -74 61 -91 94 -17 32 -15 125 2 159
19 36 65 79 97 92 39 15 118 13 153 -5z m14374 -372 c25 -16 123 -148 123
-166 0 -45 -57 -72 -91 -43 -22 17 -94 108 -108 135 -24 46 32 102 76 74z
m-11839 -98 c74 -43 145 -163 200 -334 54 -170 50 -273 -12 -355 -41 -53 -98
-81 -359 -176 -132 -48 -243 -93 -248 -100 -4 -7 -5 -18 -3 -24 3 -7 -1 -15
-9 -18 -10 -4 -25 27 -55 111 -23 65 -42 120 -42 125 0 11 30 8 30 -3 0 -5 6
-10 14 -10 24 0 474 167 510 189 57 35 74 100 51 196 -20 90 -65 182 -109 224
-61 59 -85 56 -361 -44 -132 -48 -246 -92 -253 -98 -7 -6 -11 -19 -9 -28 3
-10 -1 -20 -8 -23 -9 -3 -26 31 -55 110 -24 63 -40 118 -36 121 3 4 16 1 29
-6 20 -11 50 -2 247 70 124 45 248 88 275 95 68 18 149 9 203 -22z m15165 -4
c136 -93 103 -298 -55 -340 -135 -37 -265 93 -229 228 33 121 184 181 284 112z
m-17553 -112 c132 -67 143 -243 19 -325 -72 -48 -157 -40 -226 20 -162 142 15
402 207 305z m10060 -273 c41 -10 77 -19 79 -21 2 -2 -13 -22 -32 -45 -97
-113 -124 -293 -62 -408 45 -82 130 -156 350 -304 217 -147 351 -260 393 -335
l22 -40 -81 54 c-160 105 -294 148 -618 199 -419 66 -570 121 -693 252 -76 83
-117 183 -133 329 -9 83 6 132 59 191 68 76 180 121 348 143 102 12 279 5 368
-15z m-5100 -389 c0 -206 4 -365 10 -380 l10 -26 197 0 c212 0 732 15 900 26
l102 6 17 -36 c10 -20 14 -39 10 -43 -12 -12 -259 -21 -828 -29 l-528 -7 0
421 0 422 55 0 55 0 0 -354z m159 348 l31 -6 0 -273 c0 -233 2 -274 15 -285
16 -13 306 -10 740 6 l160 7 33 -46 32 -46 -42 -5 c-63 -9 -644 -26 -860 -26
l-188 0 0 340 0 340 24 0 c13 0 38 -3 55 -6z m-349 -447 c0 -331 3 -446 12
-455 21 -21 1015 -11 1368 13 l85 6 29 -113 c15 -62 30 -123 33 -135 l5 -23
-851 0 -851 0 -38 34 -37 34 -3 521 c-2 429 0 522 11 527 24 9 161 32 200 33
l37 1 0 -443z m5595 393 c186 -63 305 -89 460 -100 158 -11 239 -32 331 -86
l59 -35 -94 6 c-236 15 -669 92 -936 166 l-40 11 44 39 c24 22 47 39 50 39 4
0 61 -18 126 -40z m4524 17 c6 -16 100 -73 329 -200 260 -143 326 -176 347
-171 14 3 25 4 25 1 0 -3 -81 -153 -181 -332 -164 -295 -180 -330 -175 -361 4
-19 4 -34 1 -34 -4 0 -44 21 -91 47 -85 47 -103 69 -61 75 17 2 49 51 154 238
72 129 132 238 132 242 1 10 -162 98 -170 92 -4 -2 -44 -72 -89 -154 -81 -148
-82 -151 -65 -176 9 -14 14 -29 10 -32 -10 -10 -215 102 -215 118 0 5 17 10
37 12 36 3 38 5 120 151 46 82 83 150 83 152 0 9 -182 105 -189 100 -16 -9
-262 -463 -262 -482 0 -10 1 -25 3 -33 2 -8 -1 -16 -5 -18 -13 -5 -187 92
-184 103 2 5 14 12 27 15 19 4 61 72 208 338 102 183 189 332 194 332 4 0 12
-10 17 -23z m-9603 2 l44 -11 0 -162 c0 -88 4 -167 9 -175 7 -11 60 -13 290
-10 l281 4 41 -41 41 -41 -79 -6 c-43 -4 -214 -10 -380 -13 l-303 -7 0 237 c0
130 3 236 6 236 3 0 25 -5 50 -11z m359 -160 c55 -33 116 -73 135 -89 l35 -29
-126 -1 c-69 0 -160 -3 -202 -6 l-77 -7 0 126 0 126 68 -30 c37 -16 112 -57
167 -90z m2520 87 c205 -70 401 -242 488 -428 49 -103 76 -103 125 1 69 149
227 307 387 389 l40 20 -1 -81 -2 -81 -61 -38 c-91 -55 -146 -103 -201 -177
-56 -74 -68 -104 -50 -126 23 -28 48 -17 84 38 40 62 134 154 194 192 24 14
45 25 46 23 12 -17 42 -134 35 -136 -28 -11 -135 -101 -160 -135 -31 -43 -36
-66 -17 -85 22 -22 46 -13 77 29 28 39 123 119 141 119 4 0 20 -17 36 -37 16
-21 37 -46 48 -57 15 -15 16 -21 6 -24 -33 -11 -126 -65 -163 -95 l-41 -32 52
-7 c47 -7 58 -5 105 21 28 16 71 35 94 42 41 12 46 10 132 -29 92 -43 260 -91
393 -112 l76 -12 7 -83 c11 -134 56 -120 -370 -123 -204 -1 -384 0 -402 3 -18
3 -46 17 -62 30 l-29 25 -446 0 c-439 0 -445 0 -456 -21 -25 -46 -67 -59 -193
-59 l-118 0 -87 88 c-48 48 -127 115 -177 149 -49 34 -107 79 -128 101 l-39
40 103 12 c193 24 379 1 501 -61 30 -15 49 -18 94 -13 l56 7 -29 23 c-42 34
-143 81 -225 104 -105 30 -264 36 -422 16 -71 -9 -131 -15 -132 -13 -2 1 -14
27 -28 57 l-26 55 23 7 c71 23 354 62 452 62 110 1 110 1 199 -42 70 -33 104
-58 158 -112 70 -72 87 -81 108 -55 20 24 -4 67 -74 133 -74 69 -179 126 -272
148 -87 20 -184 14 -422 -27 -95 -16 -179 -29 -186 -29 -18 0 -52 120 -37 130
17 10 230 48 336 60 127 14 268 12 350 -5 151 -32 292 -129 378 -261 36 -55
69 -68 87 -34 25 46 -95 198 -219 278 -190 123 -431 142 -825 66 -71 -14 -132
-22 -136 -17 -16 17 -39 117 -29 124 15 9 322 68 409 78 41 5 140 8 220 7 128
-2 154 -6 225 -30z m9209 -50 c55 -32 86 -89 86 -155 0 -119 -91 -201 -206
-188 -184 20 -227 268 -62 352 63 31 118 29 182 -9z m-13199 -63 c-23 -65 -31
-216 -15 -295 27 -141 109 -237 221 -260 l59 -12 0 -73 c0 -90 -7 -95 -137
-101 -74 -4 -105 0 -160 17 -165 51 -264 186 -267 366 -1 72 2 87 32 147 39
79 123 170 211 227 35 22 66 39 69 37 2 -3 -3 -27 -13 -53z m6335 -38 c234
-49 501 -85 740 -100 93 -6 110 -11 153 -37 26 -17 46 -32 45 -33 -6 -4 -324
15 -513 30 -266 22 -684 78 -822 110 -26 6 -29 28 -13 86 l10 36 143 -34 c78
-19 194 -45 257 -58z m-10335 -4 c22 -10 52 -31 67 -47 138 -148 -37 -381
-219 -293 -143 69 -143 267 -1 338 53 26 100 26 153 2z m10147 -141 c330 -53
608 -79 1123 -105 228 -11 330 -12 385 -5 41 6 184 13 318 17 l242 6 0 -71 0
-72 -257 0 c-573 0 -1257 37 -1763 96 l-144 17 -44 41 c-38 34 -72 83 -72 101
0 9 22 6 212 -25z m2258 -260 l0 -160 -302 0 c-443 0 -955 22 -1466 61 l-263
20 -95 61 c-52 33 -93 62 -92 64 2 1 37 -1 78 -6 420 -51 1183 -90 1751 -90
185 0 258 3 267 12 8 8 12 46 12 105 l0 93 55 0 55 0 0 -160z m340 -112 c0
-285 -3 -304 -49 -335 -24 -17 -88 -18 -993 -21 l-967 -2 -22 42 c-36 72 -79
128 -148 196 l-66 65 75 -7 c480 -40 896 -56 1428 -56 l472 0 0 188 c0 104 3
191 6 195 4 3 64 5 135 4 l129 -2 0 -267z m-10327 88 c45 -19 68 -48 74 -94
10 -72 -43 -132 -117 -132 -66 0 -120 53 -120 117 0 40 35 92 73 108 41 18 50
18 90 1z m14582 -40 c85 -65 98 -200 27 -279 -47 -52 -160 -74 -221 -43 -69
36 -120 132 -106 199 12 54 48 107 90 133 34 21 50 24 106 22 55 -3 73 -9 104
-32z m-16766 -106 c136 -69 142 -251 12 -328 -85 -50 -179 -30 -244 51 -56 68
-46 190 20 249 53 48 148 61 212 28z m2686 -53 c0 -25 46 -97 213 -334 116
-166 212 -307 212 -313 0 -7 -8 -10 -20 -7 -30 8 -624 -409 -628 -440 -2 -13
-9 -23 -16 -23 -7 0 -108 137 -226 305 -117 168 -218 306 -224 307 -6 0 -17 2
-25 2 -34 3 -16 27 56 77 43 30 83 54 88 54 6 0 9 -14 7 -30 -3 -31 9 -50 240
-378 l69 -97 67 47 c37 25 73 51 80 58 9 8 -9 41 -86 150 -93 132 -100 140
-132 141 -18 0 -35 5 -37 10 -5 14 185 146 198 138 8 -4 8 -9 0 -17 -26 -26
-9 -65 85 -200 l96 -137 81 57 c45 31 86 60 91 64 8 7 -251 386 -303 442 -14
16 -34 26 -45 25 -42 -6 -21 20 62 78 48 34 89 60 92 57 3 -2 5 -19 5 -36z
m11292 -33 c-5 -30 -15 -22 352 -279 238 -166 255 -176 277 -164 13 7 27 9 31
6 6 -7 -120 -198 -144 -219 -14 -11 -15 -8 -17 32 -1 21 -44 55 -261 207 -143
100 -262 179 -266 175 -3 -4 -75 -105 -159 -225 -131 -187 -151 -222 -147
-247 3 -15 3 -30 0 -33 -8 -9 -183 115 -177 125 3 4 14 8 24 8 23 0 34 14 274
358 108 155 202 282 208 282 6 0 8 -11 5 -26z m-5633 -316 c12 -17 16 -49 16
-135 0 -100 -2 -115 -20 -133 -25 -25 -42 -25 -69 -2 -17 15 -21 33 -27 129
-6 96 -4 116 10 138 21 33 68 34 90 3z m-2984 -5 c0 -4 -11 -19 -25 -33 -36
-38 -46 -79 -28 -120 7 -19 65 -87 128 -151 63 -65 115 -123 116 -131 5 -130
18 -287 25 -302 8 -20 7 -20 -26 0 -47 27 -65 63 -89 173 -34 153 -66 188
-187 197 -119 9 -130 13 -183 60 -60 54 -86 95 -95 149 -10 69 -26 113 -42
119 -29 11 -50 -12 -63 -67 -16 -71 -49 -117 -119 -167 -60 -42 -102 -100
-102 -141 0 -36 35 -85 79 -114 24 -14 50 -43 62 -66 l21 -42 -119 5 c-181 7
-204 26 -206 170 -2 84 -9 71 94 193 67 78 85 129 76 215 l-7 60 345 0 c190 0
345 -3 345 -7z m11115 -22 c136 -61 150 -245 26 -326 -101 -66 -234 -23 -277
90 -60 157 98 306 251 236z m-3983 -130 c38 -68 68 -132 68 -142 0 -29 -29
-50 -64 -47 -28 3 -37 13 -98 123 -70 123 -76 142 -57 176 8 16 19 19 47 17
36 -3 38 -6 104 -127z m-8204 83 c14 -9 22 -25 21 -42 0 -37 -170 -323 -202
-341 -22 -13 -28 -13 -51 2 -16 11 -26 27 -26 41 0 27 171 324 197 344 22 16
34 15 61 -4z m-4029 -74 c161 -82 135 -306 -40 -350 -161 -41 -289 148 -196
289 49 74 157 102 236 61z m3100 -442 c35 -41 35 -58 -2 -51 -19 4 -46 -16
-136 -97 l-112 -103 29 -31 c33 -36 305 -339 308 -345 2 -2 55 43 118 100 83
74 116 110 116 127 0 12 4 22 9 22 10 0 153 -154 159 -170 2 -5 -10 -10 -27
-12 -44 -4 -571 -479 -571 -514 0 -13 -4 -24 -9 -24 -15 0 -163 169 -157 179
3 5 15 7 25 4 14 -3 47 21 120 87 56 51 101 95 101 100 0 14 -322 365 -335
365 -7 0 -56 -38 -108 -85 -76 -67 -96 -90 -94 -109 4 -45 -20 -32 -97 53 -72
80 -88 114 -47 101 12 -3 96 67 289 241 150 135 275 252 278 260 2 8 6 21 9
30 5 15 31 -9 134 -128z m9988 61 c-6 -24 483 -552 516 -557 12 -2 26 -7 30
-11 4 -5 -116 -124 -268 -265 -239 -224 -275 -261 -275 -287 0 -16 -3 -29 -7
-29 -4 0 -38 30 -75 67 -68 67 -86 100 -50 91 11 -3 28 0 39 6 28 15 393 356
393 367 0 5 -29 39 -64 76 l-64 67 -127 -119 c-121 -114 -127 -121 -122 -152
3 -18 2 -35 -3 -38 -8 -5 -161 155 -168 176 -2 6 12 7 36 3 40 -6 41 -6 161
105 66 62 122 115 125 119 2 4 -29 43 -69 86 l-72 80 -197 -183 c-108 -101
-201 -192 -206 -202 -6 -10 -7 -24 -4 -32 15 -39 -20 -20 -85 47 -72 75 -85
99 -53 95 9 -1 22 -1 28 0 7 0 137 118 290 260 153 143 282 257 287 254 5 -3
7 -14 4 -24z m2855 -42 c107 -65 127 -191 45 -284 -39 -44 -82 -63 -142 -63
-194 0 -254 264 -80 354 45 24 132 21 177 -7z m-15642 -102 c57 -29 100 -101
100 -166 0 -176 -220 -254 -333 -119 -86 102 -37 261 93 298 40 12 103 6 140
-13z m5828 -65 c13 -23 7 -44 -93 -300 -59 -151 -115 -283 -123 -292 -22 -26
-68 -23 -87 6 -16 24 -12 35 90 298 59 150 114 283 122 296 20 32 72 27 91 -8z
m-1257 -27 c35 -21 58 -67 66 -132 5 -45 3 -52 -21 -74 -54 -50 -142 -40 -184
23 -20 30 -23 43 -19 93 3 32 11 65 18 73 30 36 95 44 140 17z m834 -16 c107
-107 -6 -263 -147 -204 -60 25 -94 118 -64 176 22 41 60 60 125 61 47 0 57 -4
86 -33z m4448 -214 c19 -22 117 -266 117 -292 0 -40 -53 -65 -88 -42 -16 10
-122 265 -122 294 0 48 61 75 93 40z m5453 -88 c72 -36 99 -81 99 -165 0 -54
-5 -73 -24 -102 -55 -80 -152 -109 -235 -68 -144 69 -146 268 -4 339 56 28
103 27 164 -4z m-14976 -100 c34 -18 77 -64 89 -98 24 -63 8 -148 -38 -201
-71 -81 -218 -71 -287 20 -29 37 -43 117 -30 168 7 30 59 92 90 108 53 28 123
29 176 3z m11457 -201 c-4 -21 12 -49 84 -144 82 -110 92 -120 136 -133 26 -8
144 -45 261 -82 152 -48 221 -65 240 -60 35 9 36 8 40 -4 5 -16 -250 -203
-261 -192 -7 7 -6 16 3 26 11 13 11 18 -1 30 -12 12 -299 115 -320 115 -10 0
-12 -275 -2 -333 5 -34 9 -38 29 -33 52 13 29 -17 -72 -93 -103 -80 -142 -95
-108 -44 15 23 15 53 9 300 l-8 275 -90 120 c-71 93 -95 118 -111 116 -42 -6
-19 24 69 92 50 38 94 69 99 69 4 1 6 -11 3 -25z m-8077 -106 c43 -35 79 -68
79 -75 1 -6 -9 -13 -21 -15 -16 -2 -84 -78 -220 -246 -109 -134 -198 -247
-198 -251 0 -7 72 -67 173 -144 39 -30 52 -35 67 -27 42 23 28 -14 -36 -95
-66 -84 -84 -95 -84 -51 0 28 -7 35 -297 269 -288 233 -288 233 -307 218 -10
-8 -16 -9 -21 -1 -8 13 -3 21 68 107 55 67 85 86 73 45 -3 -10 -2 -22 2 -28
14 -22 207 -174 217 -171 9 3 355 422 392 475 11 16 13 25 4 35 -13 16 -3 30
16 23 7 -3 49 -34 93 -68z m11233 -72 c43 -18 93 -76 108 -127 23 -76 -18
-172 -89 -208 -56 -28 -89 -33 -135 -20 -121 32 -179 156 -126 267 42 86 152
126 242 88z m-14245 -115 c72 -37 102 -87 102 -172 0 -56 -10 -80 -49 -122
-38 -42 -79 -60 -136 -60 -193 0 -258 263 -87 353 48 25 122 26 170 1z m7076
-112 l26 -20 0 -181 c0 -196 -6 -218 -55 -218 -47 0 -53 23 -61 212 l-7 176
26 26 c31 31 37 32 71 5z m6803 -255 c42 -24 93 -105 93 -148 0 -43 -22 -98
-53 -133 -141 -161 -397 7 -308 202 21 47 70 92 109 101 15 3 32 7 37 9 21 8
82 -7 122 -31z m-3189 -28 c35 -19 62 -66 62 -109 0 -29 -8 -46 -34 -75 -31
-33 -39 -37 -85 -37 -43 0 -55 5 -82 31 -57 57 -48 145 20 187 31 20 87 21
119 3z m-7302 -22 c42 -20 64 -59 64 -115 0 -33 -6 -47 -34 -75 -29 -29 -41
-34 -79 -34 -133 0 -170 180 -47 229 36 14 58 13 96 -5z m-2988 -45 c86 -42
126 -152 88 -242 -25 -62 -111 -117 -182 -117 -11 0 -44 12 -72 26 -118 59
-144 214 -50 301 58 54 143 67 216 32z m13043 -335 c39 -20 87 -79 99 -123 23
-86 -30 -189 -113 -220 -66 -25 -164 -4 -209 46 -27 29 -48 88 -48 133 0 74
64 162 128 176 15 3 32 7 37 9 16 5 78 -7 106 -21z m-12610 -100 c91 -46 126
-183 69 -268 -41 -59 -85 -81 -161 -81 -60 0 -71 3 -106 31 -42 33 -83 104
-83 144 0 81 63 168 136 188 44 12 107 6 145 -14z m4757 -60 c39 -9 72 -19 72
-23 0 -4 -10 -12 -23 -18 -20 -9 -31 -48 -110 -389 -81 -353 -86 -379 -70
-396 9 -10 14 -21 11 -23 -7 -7 -240 45 -252 56 -5 5 2 13 17 18 18 7 29 21
36 48 13 48 141 602 141 610 0 3 -26 3 -58 -1 -63 -7 -72 -4 -65 22 6 23 183
122 208 117 11 -3 53 -12 93 -21z m2871 -60 c163 -48 205 -236 73 -328 l-44
-31 47 -7 c77 -11 117 -37 148 -98 105 -206 -120 -394 -473 -395 -111 0 -118
1 -183 33 -52 26 -72 42 -92 76 -65 112 -33 225 83 293 l46 28 -42 7 c-93 16
-152 83 -152 173 0 49 28 111 66 147 95 89 381 145 523 102z m-2186 -59 c114
-20 184 -47 237 -92 50 -43 70 -85 70 -148 0 -89 -35 -136 -122 -166 l-53 -18
30 -11 c144 -55 179 -226 69 -336 -63 -63 -120 -79 -289 -79 -159 0 -237 18
-334 77 -81 49 -114 95 -119 167 -9 125 42 193 168 226 l45 12 -31 16 c-39 20
-92 80 -100 113 -11 41 4 116 31 156 58 87 202 117 398 83z m-1241 -74 c22
-25 28 -41 28 -77 0 -80 -60 -134 -134 -120 -104 20 -135 143 -54 211 28 24
39 27 82 22 40 -3 55 -11 78 -36z m2463 9 c33 -12 77 -25 98 -27 20 -3 37 -9
37 -14 0 -13 -79 -169 -86 -169 -2 0 -21 18 -42 39 -50 53 -126 75 -237 69
-96 -5 -159 -35 -200 -95 -24 -36 -53 -138 -43 -149 3 -3 29 6 57 20 108 55
263 72 369 41 145 -43 223 -185 180 -327 -15 -52 -83 -127 -145 -160 -83 -45
-155 -61 -262 -56 -82 3 -106 8 -163 35 -142 67 -218 200 -218 382 0 115 42
221 118 303 54 58 110 93 190 119 83 27 263 22 347 -11z m1569 -14 c117 -49
84 -226 -43 -226 -47 0 -79 17 -101 52 -29 47 -26 99 7 138 42 50 80 60 137
36z m3904 -51 c96 -41 146 -149 111 -242 -14 -38 -67 -92 -106 -109 -70 -30
-164 -6 -216 55 -83 99 -42 253 80 297 50 18 86 17 131 -1z m-11726 -75 c76
-21 138 -102 138 -180 0 -70 -59 -155 -123 -179 -118 -45 -258 54 -257 181 1
92 91 183 185 187 11 1 37 -4 57 -9z m11272 -315 c70 -33 112 -127 94 -207
-36 -163 -250 -200 -339 -60 -63 100 -25 221 86 274 47 22 103 20 159 -7z
m-10756 -74 c46 -23 67 -46 87 -94 48 -116 -27 -245 -150 -255 -71 -6 -97 2
-140 40 -61 53 -84 119 -65 187 13 49 62 109 105 127 44 19 120 17 163 -5z
m10259 -260 c50 -23 99 -86 108 -140 24 -146 -127 -263 -260 -202 -99 46 -139
143 -100 239 21 49 52 81 100 103 51 24 99 24 152 0z m-9764 -75 c70 -29 126
-129 112 -199 -12 -55 -51 -111 -95 -136 -59 -33 -152 -27 -204 12 -72 55 -95
150 -57 232 20 43 40 64 86 88 37 20 115 21 158 3z m9236 -246 c134 -68 146
-245 22 -325 -152 -99 -345 57 -275 223 44 106 157 152 253 102z m-8736 -51
c47 -13 106 -63 123 -106 29 -68 9 -168 -43 -215 -77 -70 -214 -58 -276 24
-83 108 -32 258 101 298 38 12 52 11 95 -1z m8190 -223 c57 -23 117 -111 117
-171 0 -57 -56 -142 -113 -171 -35 -18 -110 -20 -152 -4 -65 25 -115 100 -115
172 0 48 27 114 56 139 56 48 142 63 207 35z m-7615 -57 c107 -52 136 -200 56
-289 -110 -122 -288 -71 -328 93 -9 36 10 104 39 143 31 40 99 74 149 74 22 0
59 -10 84 -21z m7089 -206 c54 -43 77 -88 77 -148 0 -105 -84 -189 -189 -189
-61 0 -105 23 -149 77 -28 35 -31 46 -31 106 0 56 4 74 27 108 57 87 187 110
265 46z m-6523 -28 c70 -34 115 -133 95 -210 -43 -161 -252 -196 -340 -57
-103 162 70 350 245 267z m5913 -146 c64 -24 123 -109 123 -179 0 -108 -113
-203 -220 -185 -83 14 -159 101 -160 183 0 68 53 150 115 178 36 16 104 18
142 3z m-5344 -45 c69 -35 107 -95 107 -168 0 -110 -77 -189 -185 -189 -57 0
-98 18 -136 60 -52 55 -65 110 -44 180 32 107 162 166 258 117z m4762 -123
c47 -22 89 -64 104 -104 29 -77 -2 -175 -70 -223 -120 -83 -291 3 -292 148 -1
143 134 237 258 179z m-4200 -22 c119 -33 177 -157 124 -267 -52 -107 -200
-136 -289 -56 -50 45 -75 109 -66 166 15 91 76 146 186 167 3 0 23 -4 45 -10z
m3598 -103 c43 -18 93 -76 108 -127 22 -73 -18 -171 -84 -206 -51 -26 -98 -33
-142 -22 -127 34 -184 179 -112 287 46 70 151 101 230 68z m-2965 -27 c154
-75 125 -303 -45 -348 -132 -35 -259 94 -223 228 31 116 158 173 268 120z
m2375 -53 c48 -20 94 -75 108 -126 22 -83 -8 -158 -82 -207 -84 -55 -206 -27
-259 60 -93 152 69 343 233 273z m-1752 -31 c63 -41 97 -128 78 -200 -43 -161
-252 -196 -340 -57 -63 100 -25 221 86 274 52 25 124 18 176 -17z m1145 -20
c169 -84 124 -335 -65 -353 -103 -10 -191 62 -199 163 -2 30 -2 65 2 79 9 38
65 97 111 117 54 25 92 24 151 -6z m-556 -4 c105 -56 134 -200 58 -287 -42
-48 -80 -65 -143 -65 -63 0 -101 17 -143 66 -38 43 -46 69 -40 140 5 63 39
115 96 145 48 25 126 26 172 1z"/>
<path d="M10222 17414 c-41 -75 -72 -137 -70 -139 10 -9 268 -16 268 -7 0 16
-112 282 -119 282 -3 0 -39 -61 -79 -136z"/>
<path d="M10260 16150 l0 -534 58 80 c133 182 177 247 173 258 -2 6 -53 171
-113 366 -60 195 -111 357 -114 359 -2 2 -4 -236 -4 -529z"/>
<path d="M9240 15923 c90 -36 934 -322 938 -319 2 3 -39 77 -93 165 l-96 161
-382 -1 c-210 0 -375 -3 -367 -6z"/>
<path d="M11120 15856 c-96 -34 -321 -114 -498 -176 l-324 -113 177 -63 176
-62 327 235 c180 130 329 237 331 239 11 10 -28 -2 -189 -60z"/>
<path d="M10036 15475 c-81 -30 -150 -56 -153 -59 -6 -6 -233 -700 -229 -703
2 -2 471 683 539 789 25 38 20 37 -157 -27z"/>
<path d="M10270 15317 c0 -159 3 -207 13 -207 6 -1 140 -94 297 -209 157 -115
286 -207 288 -206 3 3 -569 797 -589 820 -5 5 -9 -79 -9 -198z"/>
<path d="M13729 16673 c-51 -8 -132 -66 -164 -117 -27 -44 -30 -58 -30 -130 0
-99 25 -157 100 -232 94 -94 242 -137 360 -104 62 17 127 77 155 142 93 218
-158 481 -421 441z"/>
<path d="M6632 16585 c-153 -34 -278 -163 -298 -306 -13 -93 41 -197 128 -245
48 -26 62 -29 143 -29 81 1 97 4 156 33 126 61 219 193 219 310 0 89 -71 193
-154 227 -51 21 -127 25 -194 10z"/>
<path d="M14777 15947 c-37 -45 -67 -86 -67 -90 -1 -9 200 -179 252 -214 50
-34 98 -43 135 -28 66 28 82 102 38 167 -25 37 -266 249 -282 247 -4 0 -38
-37 -76 -82z"/>
<path d="M9145 13880 c-93 -13 -117 -24 -113 -53 3 -21 6 -22 78 -17 178 12
474 5 560 -13 148 -31 260 -95 321 -183 21 -31 37 -44 53 -44 91 0 -31 157
-179 231 -119 59 -229 79 -460 84 -104 2 -221 0 -260 -5z"/>
<path d="M8859 13796 c-17 -18 -225 -39 -429 -45 l-235 -6 -3 -27 c-6 -48 18
-52 258 -45 211 6 379 26 429 50 14 7 27 21 29 31 5 24 -34 57 -49 42z"/>
<path d="M7390 13768 c-31 -16 -53 -37 -70 -68 -25 -45 -25 -46 -25 -310 0
-284 4 -314 52 -378 40 -54 90 -72 222 -83 156 -12 308 -11 353 1 50 14 97 55
119 105 17 36 19 69 18 305 0 277 -5 316 -46 362 -47 53 -120 66 -463 84 -107
5 -118 4 -160 -18z m348 -73 c186 -15 213 -23 235 -73 7 -18 11 -110 12 -277
0 -278 -3 -293 -64 -329 -30 -17 -51 -20 -150 -18 -189 3 -306 17 -340 41 -50
36 -56 70 -56 347 0 267 4 291 49 312 29 15 113 14 314 -3z"/>
<path d="M7607 13549 c-22 -71 -117 -432 -114 -434 1 -2 22 -5 47 -7 l45 -5
20 81 20 81 55 -4 c30 -1 57 -5 59 -6 2 -2 11 -39 20 -82 l17 -78 46 -3 c40
-3 46 -1 42 15 -2 10 -22 90 -44 178 -21 89 -45 193 -52 233 -11 63 -15 72
-34 72 -12 0 -41 3 -65 6 l-45 6 -17 -53z m99 -110 c23 -88 20 -99 -22 -99
l-37 0 6 43 c8 55 27 120 33 114 3 -3 12 -29 20 -58z"/>
<path d="M9190 13543 c-14 -2 -95 -19 -180 -38 -85 -18 -177 -36 -205 -40 -78
-10 -85 -13 -85 -45 0 -19 6 -31 18 -35 27 -8 140 10 299 47 130 31 149 33
328 33 110 0 220 -6 260 -13 168 -31 283 -91 356 -187 35 -46 47 -55 68 -53
38 4 38 39 2 92 -93 134 -255 210 -502 236 -99 10 -309 12 -359 3z"/>
<path d="M8358 13411 c-124 -6 -152 -17 -132 -49 10 -15 29 -17 154 -15 199 2
232 11 214 58 -7 16 -14 16 -236 6z"/>
<path d="M9265 13139 c-27 -5 -65 -11 -82 -14 -40 -7 -60 -37 -39 -58 13 -13
26 -13 103 0 105 17 379 13 461 -7 46 -12 55 -12 68 1 22 22 7 47 -35 59 -108
29 -363 39 -476 19z"/>
<path d="M8810 13070 c-157 -27 -380 -50 -500 -50 -36 0 -71 -4 -78 -9 -18
-11 -12 -51 10 -65 35 -21 585 33 732 72 38 10 55 36 40 60 -15 24 -29 23
-204 -8z"/>
<path d="M9907 13013 c-16 -16 -4 -48 36 -95 88 -105 95 -110 117 -98 39 21
19 70 -64 158 -37 38 -72 53 -89 35z"/>
<path d="M9165 12786 c-44 -8 -145 -26 -225 -40 -229 -40 -435 -58 -939 -79
-61 -2 -85 -23 -65 -54 10 -16 29 -18 180 -16 330 4 623 32 909 85 177 33 304
40 524 28 82 -4 95 -3 105 13 17 27 -5 51 -55 58 -105 16 -355 18 -434 5z"/>
<path d="M9770 12731 c-14 -28 -5 -42 46 -75 58 -37 159 -130 181 -167 9 -16
23 -31 31 -34 22 -8 52 14 52 39 0 50 -224 256 -278 256 -12 0 -26 -9 -32 -19z"/>
<path d="M7289 12644 c-9 -11 -10 -20 -2 -32 9 -15 37 -17 248 -17 211 0 239
2 248 17 8 12 7 21 -2 32 -12 14 -46 16 -246 16 -200 0 -234 -2 -246 -16z"/>
<path d="M8982 12406 c-111 -19 -253 -40 -315 -46 -141 -15 -159 -21 -155 -58
3 -23 8 -27 40 -30 45 -4 220 18 473 59 180 30 201 31 390 26 157 -4 218 -10
283 -26 139 -35 227 -92 293 -188 31 -45 57 -54 79 -28 21 25 3 62 -67 135
-49 53 -84 80 -139 106 -122 58 -218 75 -464 79 -207 4 -222 3 -418 -29z"/>
<path d="M7987 12310 c-121 -4 -212 -11 -218 -17 -6 -6 -9 -19 -7 -29 3 -18
17 -19 278 -17 151 2 289 7 305 11 23 6 30 14 30 33 0 24 -2 24 -90 25 -49 1
-184 -2 -298 -6z"/>
<path d="M7281 12291 c-8 -15 -7 -24 7 -40 16 -21 24 -22 191 -19 153 3 175 5
185 21 8 12 8 22 0 35 -10 15 -32 17 -192 20 -170 2 -182 1 -191 -17z"/>
<path d="M9275 12043 c-22 -2 -166 -21 -320 -43 -352 -49 -517 -66 -775 -81
-132 -7 -210 -15 -218 -23 -14 -14 -7 -42 12 -49 16 -7 332 9 486 23 63 6 214
25 335 41 121 17 285 39 365 50 80 10 194 19 253 18 113 -1 133 5 123 39 -10
29 -110 39 -261 25z"/>
<path d="M9690 12016 c-6 -8 -10 -25 -8 -38 2 -18 13 -25 55 -34 111 -25 202
-91 254 -184 20 -38 29 -45 54 -45 47 0 45 38 -5 113 -66 99 -165 167 -278
191 -65 13 -57 14 -72 -3z"/>
<path d="M7280 11901 c-13 -26 -3 -50 24 -56 11 -3 134 -4 271 -3 l250 3 3 27
c3 22 -2 30 -23 38 -15 6 -132 10 -270 10 -231 0 -245 -1 -255 -19z"/>
<path d="M9325 11639 c-55 -9 -80 -31 -65 -60 9 -16 24 -17 182 -12 139 4 187
2 242 -11 128 -30 235 -102 301 -201 39 -59 66 -69 89 -33 16 26 -16 80 -95
159 -119 120 -265 170 -486 168 -65 -1 -140 -5 -168 -10z"/>
<path d="M8985 11604 c-214 -37 -452 -62 -858 -90 -73 -5 -89 -9 -98 -26 -8
-15 -7 -24 6 -38 14 -15 28 -17 103 -13 278 14 690 58 896 95 75 14 100 34 80
66 -14 22 -32 23 -129 6z"/>
<path d="M7288 11493 c-8 -11 -9 -19 -1 -31 9 -15 45 -18 277 -26 295 -9 349
-5 354 32 2 12 -3 24 -10 26 -7 3 -147 7 -310 9 -252 4 -300 2 -310 -10z"/>
<path d="M9315 11249 c-55 -4 -210 -23 -345 -43 -135 -19 -297 -40 -360 -47
-113 -11 -140 -19 -140 -44 0 -42 82 -38 555 30 132 19 307 38 390 42 133 7
150 10 153 26 9 48 -29 54 -253 36z"/>
<path d="M9712 11228 c-16 -16 -15 -43 1 -55 6 -6 33 -16 60 -23 93 -25 175
-97 226 -198 19 -37 26 -43 49 -40 36 4 40 35 10 95 -50 100 -152 186 -257
217 -65 19 -73 20 -89 4z"/>
<path d="M8020 11130 c-91 -4 -292 -8 -447 -9 -258 -1 -283 -3 -291 -18 -10
-20 -5 -44 12 -55 26 -18 1023 4 1074 23 18 7 23 15 20 37 l-3 27 -100 1 c-55
0 -174 -2 -265 -6z"/>
<path d="M9336 10858 c-10 -8 -17 -23 -14 -34 3 -18 13 -19 158 -20 267 -1
376 -48 497 -211 55 -74 75 -86 92 -56 28 51 -133 229 -254 282 -84 37 -125
43 -290 48 -136 4 -174 2 -189 -9z"/>
<path d="M9025 10824 c-262 -45 -579 -73 -913 -81 -233 -5 -266 -8 -285 -24
-18 -14 -20 -21 -11 -36 11 -17 30 -18 270 -17 323 2 631 28 973 83 111 17
137 33 115 69 -14 22 -49 23 -149 6z"/>
<path d="M7286 10714 c-19 -18 -19 -20 -6 -45 10 -18 23 -19 210 -19 167 0
201 2 214 16 9 8 16 21 16 28 0 32 -24 36 -221 36 -166 0 -200 -2 -213 -16z"/>
<path d="M9225 10504 c-144 -22 -287 -53 -302 -65 -7 -6 -13 -20 -13 -30 0
-34 30 -38 125 -19 212 43 306 53 445 47 268 -12 383 -64 497 -225 34 -47 51
-62 66 -60 35 5 43 32 21 74 -31 61 -162 187 -224 217 -143 69 -401 94 -615
61z"/>
<path d="M8685 10394 c-33 -7 -139 -20 -235 -29 -96 -9 -181 -18 -187 -20 -17
-6 -17 -40 0 -53 21 -18 402 20 495 49 33 11 42 35 20 57 -14 14 -13 14 -93
-4z"/>
<path d="M7620 10328 c-343 -10 -359 -12 -346 -56 4 -11 15 -22 26 -25 24 -6
788 11 811 18 23 8 34 42 19 60 -14 17 -4 17 -510 3z"/>
<path d="M9240 10104 c-176 -33 -439 -88 -452 -95 -22 -12 -23 -42 -3 -59 13
-11 57 -5 249 33 206 42 248 47 364 47 139 0 254 -17 315 -46 45 -21 72 -11
72 27 0 27 -41 51 -128 76 -51 14 -364 27 -417 17z"/>
<path d="M8545 9964 c-101 -23 -309 -43 -560 -55 -132 -6 -246 -15 -252 -21
-17 -14 -16 -33 0 -47 15 -12 342 0 552 19 145 14 357 49 373 63 7 5 12 20 10
31 -4 26 -39 29 -123 10z"/>
<path d="M9877 9959 c-31 -18 -20 -52 29 -93 25 -21 62 -61 81 -88 38 -52 65
-60 87 -26 15 24 -13 75 -78 139 -62 62 -95 81 -119 68z"/>
<path d="M7286 9885 c-19 -19 -20 -37 -4 -53 14 -14 235 -17 256 -3 8 5 12 21
10 37 l-3 29 -121 3 c-101 2 -125 0 -138 -13z"/>
<path d="M9315 9672 c-23 -6 -30 -13 -30 -32 l0 -25 155 -6 c94 -4 179 -13
215 -23 142 -39 243 -106 320 -212 36 -49 53 -64 69 -62 82 12 -64 198 -220
280 -101 53 -206 78 -354 83 -69 2 -138 1 -155 -3z"/>
<path d="M8985 9625 c-278 -63 -509 -102 -745 -125 -118 -12 -140 -20 -140
-50 0 -42 20 -43 217 -21 104 12 242 31 308 42 168 28 537 109 553 121 17 15
15 55 -4 62 -22 8 -21 8 -189 -29z"/>
<path d="M7835 9470 c-66 -4 -213 -8 -327 -9 -173 -1 -209 -4 -222 -17 -20
-20 -20 -38 -1 -54 13 -11 78 -12 318 -6 364 9 391 12 395 45 4 22 -21 54 -37
49 -3 -1 -60 -5 -126 -8z"/>
<path d="M8965 9204 c-154 -31 -286 -61 -292 -66 -7 -6 -13 -19 -13 -29 0 -43
28 -41 322 17 270 53 290 56 433 55 163 -1 209 -5 299 -28 120 -29 205 -89
271 -189 28 -41 42 -54 57 -52 37 5 45 33 23 75 -33 62 -130 158 -194 192
-109 58 -191 73 -421 77 l-205 4 -280 -56z"/>
<path d="M8300 9090 c-176 -27 -349 -40 -508 -40 -75 0 -143 -4 -150 -9 -8 -4
-12 -19 -10 -32 3 -23 6 -24 103 -27 187 -6 675 39 743 68 16 7 22 17 20 33
-4 29 -37 30 -198 7z"/>
<path d="M7280 9031 c-8 -17 -6 -25 10 -41 29 -29 166 -29 201 -1 20 16 22 23
13 38 -9 15 -27 18 -112 21 -92 2 -102 1 -112 -17z"/>
<path d="M9075 8799 c-300 -63 -440 -87 -640 -113 -183 -23 -204 -30 -205 -62
0 -6 7 -17 16 -25 29 -24 415 32 859 125 94 20 187 36 208 36 47 0 77 15 77
38 0 54 -63 54 -315 1z"/>
<path d="M9537 8823 c-13 -12 -7 -42 11 -51 9 -5 51 -12 92 -15 41 -3 98 -12
126 -21 76 -24 168 -89 220 -157 48 -63 67 -71 84 -39 9 17 5 28 -18 63 -73
104 -175 173 -310 208 -73 18 -192 26 -205 12z"/>
<path d="M7855 8633 c-95 -4 -115 -10 -115 -32 0 -37 22 -42 156 -36 233 10
255 16 238 60 -6 15 -73 17 -279 8z"/>
<path d="M9359 8449 c-121 -17 -572 -128 -588 -143 -20 -21 -4 -50 31 -54 13
-2 130 22 259 52 308 73 359 80 500 72 236 -13 296 -43 451 -226 23 -27 30
-30 47 -20 32 17 25 49 -28 121 -58 79 -145 140 -240 169 -110 35 -307 48
-432 29z"/>
<path d="M8550 8274 c-30 -8 -76 -16 -102 -19 -47 -6 -63 -21 -52 -50 8 -20
99 -19 183 3 66 17 89 37 78 66 -7 19 -30 19 -107 0z"/>
<path d="M9415 8070 c-101 -9 -645 -143 -657 -163 -12 -19 -9 -33 8 -48 19
-15 66 -6 364 71 214 56 358 76 487 67 88 -6 111 3 98 42 -12 40 -92 48 -300
31z"/>
<path d="M9813 8033 c-7 -2 -13 -15 -13 -28 0 -19 10 -29 48 -45 55 -25 113
-78 148 -137 18 -31 31 -43 48 -43 36 0 39 27 10 78 -41 69 -88 116 -153 151
-60 31 -66 33 -88 24z"/>
<path d="M10965 13914 c-177 -27 -291 -74 -380 -156 -93 -85 -140 -171 -104
-193 18 -12 55 4 66 28 21 45 113 134 170 164 104 54 200 78 383 92 89 7 117
13 127 27 8 12 9 22 2 35 -8 16 -21 19 -92 18 -45 -1 -122 -7 -172 -15z"/>
<path d="M11381 13901 c-7 -13 -7 -23 2 -34 23 -29 314 -100 562 -136 164 -24
473 -48 499 -38 26 10 17 50 -14 59 -14 4 -101 11 -195 17 -255 16 -547 66
-741 126 -95 30 -101 30 -113 6z"/>
<path d="M12826 13760 c-184 -4 -210 -7 -220 -22 -8 -13 -8 -23 0 -35 11 -17
35 -18 319 -15 187 2 315 7 327 13 13 7 18 19 16 37 l-3 27 -115 0 c-63 1
-209 -2 -324 -5z"/>
<path d="M11092 13570 c-276 -24 -432 -85 -546 -211 -63 -70 -84 -112 -66
-134 20 -24 37 -18 68 28 108 155 255 222 544 248 198 17 334 9 447 -29 96
-31 115 -32 126 -4 10 26 -16 41 -121 74 -85 26 -118 31 -229 33 -71 2 -172 0
-223 -5z"/>
<path d="M11820 13445 c-23 -28 -2 -53 53 -64 120 -25 327 -42 558 -48 240 -6
247 -5 257 14 8 15 8 25 -2 38 -11 16 -40 19 -257 26 -232 7 -359 18 -494 39
-81 13 -100 12 -115 -5z"/>
<path d="M13026 13413 c-62 -2 -116 -9 -123 -15 -8 -6 -13 -23 -11 -37 l3 -26
174 3 c177 3 201 8 201 41 0 30 -22 41 -79 39 -31 -1 -105 -4 -165 -5z"/>
<path d="M11022 13179 c-119 -14 -249 -49 -324 -86 -120 -60 -252 -210 -227
-256 20 -35 53 -20 98 43 98 140 270 211 551 226 134 8 152 14 148 52 -3 27
-4 27 -88 28 -47 1 -118 -2 -158 -7z"/>
<path d="M11345 13161 c-4 -7 -4 -23 -1 -36 5 -19 15 -25 54 -31 26 -3 124
-26 217 -49 271 -69 494 -93 947 -102 233 -5 301 -3 313 7 19 16 19 34 -1 54
-13 14 -47 16 -217 16 -326 0 -684 27 -874 65 -43 9 -127 30 -188 47 -124 34
-238 47 -250 29z"/>
<path d="M13088 13023 c-52 -4 -73 -22 -63 -52 8 -27 26 -30 134 -23 74 6 96
11 105 25 8 12 8 22 0 35 -12 18 -75 23 -176 15z"/>
<path d="M11037 12809 c-287 -33 -443 -112 -548 -278 -22 -34 -26 -48 -18 -62
19 -36 52 -23 97 39 41 57 108 115 167 145 110 55 305 87 539 87 140 0 159 -2
246 -29 102 -32 130 -29 130 13 0 27 -31 42 -153 76 -59 17 -100 20 -232 19
-88 -1 -191 -5 -228 -10z"/>
<path d="M11867 12683 c-13 -12 -7 -51 9 -57 32 -12 246 -35 434 -47 190 -11
877 -6 927 7 26 7 37 32 22 50 -8 10 -87 12 -407 7 -408 -6 -654 4 -861 32
-121 17 -116 17 -124 8z"/>
<path d="M11040 12450 c-55 -12 -85 -42 -69 -72 9 -16 17 -19 42 -13 18 3 93
9 168 12 135 5 137 5 325 -41 203 -49 385 -80 414 -71 37 12 35 62 -4 70 -11
2 -77 14 -146 25 -69 11 -183 37 -255 56 -117 33 -145 36 -280 40 -82 1 -170
-1 -195 -6z"/>
<path d="M10780 12376 c-124 -46 -254 -143 -295 -219 -16 -30 -17 -38 -6 -51
22 -26 38 -19 76 32 60 79 161 147 268 182 33 10 38 16 35 38 -4 32 -27 37
-78 18z"/>
<path d="M12053 12309 c-7 -7 -13 -21 -13 -30 0 -30 23 -37 170 -49 181 -14
867 -24 975 -13 74 7 80 10 83 32 2 13 -1 28 -7 34 -7 7 -123 10 -363 8 -313
-2 -535 5 -763 25 -51 4 -73 2 -82 -7z"/>
<path d="M11082 12069 c-234 -23 -471 -134 -581 -273 -36 -45 -41 -91 -11
-101 15 -5 38 12 102 78 67 67 99 91 168 125 165 80 364 114 541 93 55 -7 121
-19 146 -26 55 -17 83 -6 83 31 0 29 -16 36 -122 57 -99 20 -226 26 -326 16z"/>
<path d="M11670 11965 c-16 -20 -6 -43 24 -55 43 -16 226 -48 371 -65 133 -15
657 -37 682 -28 17 7 25 34 13 48 -7 8 -73 14 -217 19 -359 12 -588 35 -771
77 -99 23 -87 22 -102 4z"/>
<path d="M12897 11894 c-11 -12 -8 -52 5 -60 16 -10 243 -15 308 -6 53 7 55 8
55 37 l0 30 -181 3 c-99 1 -183 -1 -187 -4z"/>
<path d="M11067 11659 c-279 -25 -455 -105 -566 -260 -38 -51 -41 -94 -9 -105
18 -5 28 0 48 27 54 73 146 155 204 182 77 37 195 64 331 77 61 5 113 10 117
10 4 0 12 9 18 20 8 15 6 24 -10 40 -11 11 -23 19 -27 19 -5 -1 -52 -6 -106
-10z"/>
<path d="M11324 11645 c-12 -30 4 -43 63 -50 32 -4 154 -32 272 -62 325 -82
603 -119 831 -111 94 3 95 3 98 29 4 35 -13 39 -158 39 -127 0 -348 21 -480
45 -47 9 -181 41 -299 71 -222 56 -316 68 -327 39z"/>
<path d="M12990 11499 c-129 -3 -240 -7 -247 -8 -21 -2 -36 -40 -22 -57 9 -11
52 -14 233 -13 274 1 310 5 314 38 4 22 -21 54 -37 49 -3 -1 -112 -5 -241 -9z"/>
<path d="M11101 11269 c-186 -13 -346 -54 -440 -111 -88 -54 -191 -174 -191
-222 0 -54 53 -45 90 15 36 59 115 127 185 160 113 53 236 75 475 85 170 7
191 5 464 -60 159 -38 186 -37 186 8 0 29 7 26 -197 75 -273 65 -315 68 -572
50z"/>
<path d="M12078 11124 c-16 -15 -7 -45 15 -53 59 -23 329 -36 729 -36 374 0
419 2 434 16 12 13 14 21 6 35 -10 17 -31 18 -379 16 -330 -3 -442 1 -718 24
-44 3 -83 3 -87 -2z"/>
<path d="M11216 10881 c-79 -5 -101 -9 -110 -23 -8 -13 -8 -23 0 -35 10 -16
30 -18 175 -19 149 0 179 -4 334 -37 207 -44 400 -72 601 -88 156 -13 180 -11
191 17 13 34 -28 50 -144 58 -168 11 -400 43 -613 85 -217 43 -290 50 -434 42z"/>
<path d="M10820 10826 c-41 -12 -100 -35 -130 -50 -68 -35 -170 -132 -201
-191 -22 -41 -22 -46 -7 -61 22 -22 37 -12 90 61 59 80 138 133 256 171 104
34 130 55 98 80 -24 17 -15 18 -106 -10z"/>
<path d="M12546 10712 c-10 -31 4 -51 37 -57 18 -3 115 -5 216 -3 162 3 185 5
195 21 8 12 8 22 0 35 -10 15 -34 17 -227 20 -203 2 -216 1 -221 -16z"/>
<path d="M11020 10509 c-108 -11 -246 -51 -324 -92 -73 -38 -178 -134 -212
-193 -20 -35 -23 -47 -14 -63 18 -35 47 -25 88 32 117 158 274 226 566 245 88
6 111 10 120 25 8 12 8 22 0 35 -13 21 -93 25 -224 11z"/>
<path d="M11455 10449 c-4 -12 -2 -26 3 -31 21 -21 527 -116 557 -105 21 9 19
54 -2 61 -10 2 -65 12 -123 21 -58 9 -170 29 -249 46 -171 35 -178 35 -186 8z"/>
<path d="M12201 10337 c-17 -21 -5 -56 22 -61 78 -16 244 -27 372 -24 149 3
150 3 153 27 2 13 -1 28 -8 35 -7 7 -81 13 -203 17 -106 4 -221 10 -257 14
-54 6 -68 5 -79 -8z"/>
<path d="M11026 10091 c-39 -8 -56 -35 -35 -57 14 -13 41 -16 165 -15 123 1
169 -3 264 -23 377 -81 464 -98 621 -120 180 -26 463 -54 582 -57 74 -2 90 6
85 42 -4 29 -23 33 -253 49 -88 6 -243 22 -345 36 -171 23 -267 41 -660 123
-121 26 -166 31 -270 30 -69 -1 -138 -4 -154 -8z"/>
<path d="M10780 10046 c-120 -44 -218 -121 -286 -223 -36 -55 -39 -85 -8 -97
23 -9 36 2 90 74 62 82 130 133 221 166 81 30 98 44 88 74 -8 24 -50 26 -105
6z"/>
<path d="M10985 9699 c-207 -14 -329 -57 -423 -151 -73 -72 -107 -130 -92
-157 18 -35 47 -25 88 32 110 148 218 190 523 202 120 5 171 3 233 -9 87 -17
106 -12 106 29 0 27 -27 38 -130 55 -72 11 -140 11 -305 -1z"/>
<path d="M11492 9628 c-16 -16 -15 -43 1 -57 16 -12 365 -83 504 -102 100 -13
123 -7 123 32 0 25 -27 35 -130 49 -47 6 -174 29 -282 51 -108 21 -199 39
-201 39 -1 0 -8 -5 -15 -12z"/>
<path d="M12247 9503 c-14 -13 -7 -52 11 -57 51 -16 397 -37 562 -34 l185 3 0
25 c0 24 -4 25 -70 31 -38 4 -135 7 -215 8 -80 1 -212 8 -295 16 -175 17 -170
17 -178 8z"/>
<path d="M10838 9269 c-133 -18 -241 -75 -314 -168 -54 -68 -64 -99 -39 -117
24 -18 36 -9 85 58 60 84 143 135 250 153 25 4 104 11 175 14 l130 6 0 30 0
30 -110 1 c-60 1 -140 -2 -177 -7z"/>
<path d="M11304 9247 c-3 -9 -4 -24 -2 -34 3 -15 18 -19 98 -25 52 -4 212 -25
355 -47 279 -43 504 -67 530 -57 11 4 15 15 13 33 l-3 28 -165 17 c-91 9 -270
33 -399 53 -296 45 -418 54 -427 32z"/>
<path d="M12433 9129 c-17 -17 -16 -44 0 -57 22 -18 223 -33 397 -30 l165 3 0
30 0 30 -65 2 c-129 5 -416 23 -450 29 -22 3 -40 1 -47 -7z"/>
<path d="M10884 8865 c-140 -25 -240 -71 -320 -146 -80 -77 -97 -139 -36 -139
21 0 33 7 43 26 7 15 33 44 58 65 79 70 197 113 347 127 57 5 80 12 88 25 31
49 -45 67 -180 42z"/>
<path d="M12874 8746 c-15 -38 0 -51 66 -58 136 -15 236 13 201 56 -19 22
-259 24 -267 2z"/>
<path d="M10813 8439 c-130 -22 -217 -74 -293 -177 -53 -72 -60 -96 -32 -111
24 -13 32 -7 86 67 78 105 167 148 331 158 115 7 131 10 139 30 13 33 -12 44
-98 43 -44 -1 -104 -5 -133 -10z"/>
<path d="M10880 8082 c-65 -23 -75 -30 -78 -53 -5 -39 19 -42 94 -14 37 14 80
25 98 25 42 0 58 13 54 41 -3 21 -9 24 -48 26 -28 1 -73 -8 -120 -25z"/>
<path d="M10615 7968 c-71 -48 -147 -145 -143 -183 2 -24 8 -31 28 -33 21 -2
33 8 69 58 27 39 63 74 97 96 47 30 55 39 52 62 -5 40 -43 40 -103 0z"/>
<path d="M16354 13454 c5 -11 24 -59 43 -109 19 -49 39 -101 44 -114 10 -24
14 -21 119 84 61 61 110 112 110 116 0 3 -48 11 -107 18 -60 6 -132 14 -162
18 -50 5 -54 4 -47 -13z"/>
<path d="M3342 12613 c-29 -30 -44 -60 -64 -129 -45 -148 -71 -254 -66 -260 3
-3 54 -18 112 -34 77 -21 108 -25 111 -17 3 7 21 73 41 147 48 173 51 257 13
295 -16 17 -41 29 -68 32 -39 5 -44 3 -79 -34z"/>
<path d="M17173 11807 c-53 -13 -83 -26 -83 -34 0 -27 81 -336 95 -364 31 -59
91 -76 138 -39 42 34 43 72 3 236 -51 206 -56 224 -64 223 -4 -1 -44 -11 -89
-22z"/>
<path d="M16838 11723 c-74 -19 -98 -29 -98 -42 0 -34 79 -320 99 -359 11 -22
31 -48 43 -56 26 -18 80 -21 110 -5 24 13 48 67 48 111 0 49 -82 378 -94 377
-6 0 -55 -12 -108 -26z"/>
<path d="M17246 9532 c-3 -5 -8 -90 -12 -188 -8 -211 0 -244 62 -270 68 -29
125 6 149 91 13 45 41 352 33 360 -9 9 -226 16 -232 7z"/>
<path d="M12296 8418 c-22 -218 -83 -469 -152 -624 -8 -17 32 -24 213 -39 89
-8 171 -19 182 -25 11 -5 22 -10 25 -10 5 0 46 88 46 99 0 7 -93 24 -233 43
-72 9 -86 14 -82 27 2 9 20 93 39 186 18 94 48 211 65 260 17 50 34 97 37 106
4 12 -6 18 -43 27 -26 6 -58 14 -69 18 -20 5 -22 1 -28 -68z"/>
<path d="M12901 8127 c-44 -189 -96 -349 -136 -423 l-33 -62 30 -6 c16 -3 42
-15 58 -26 15 -11 30 -20 33 -20 2 0 7 19 11 43 10 66 103 379 141 479 40 104
39 98 22 98 -8 0 -32 13 -54 29 l-39 29 -33 -141z"/>
<path d="M14705 8093 c-51 -28 -127 -43 -217 -43 l-86 0 -22 -66 c-12 -36 -20
-67 -18 -70 3 -2 22 2 44 9 21 8 60 17 85 21 l46 7 42 -162 c50 -189 71 -284
71 -320 0 -14 2 -28 5 -31 4 -4 114 28 122 36 2 2 -9 36 -23 77 -25 72 -116
411 -111 415 8 8 144 44 164 44 24 0 24 0 -11 42 -20 23 -36 45 -36 50 0 12
-22 9 -55 -9z"/>
<path d="M13350 8089 c-142 -21 -244 -132 -270 -294 -20 -127 28 -265 121
-349 54 -49 98 -66 168 -66 117 0 194 94 217 265 3 28 13 58 21 67 14 15 11
18 -29 28 -23 6 -65 17 -93 24 -106 29 -105 29 -105 2 0 -14 -4 -36 -9 -49 -9
-23 -7 -25 29 -31 22 -3 51 -11 65 -18 24 -11 26 -15 19 -52 -8 -49 -25 -85
-53 -110 -29 -26 -107 -18 -160 17 -61 40 -86 102 -85 209 1 75 5 95 30 144
40 81 88 117 163 122 44 3 70 -1 105 -16 25 -12 46 -25 46 -29 0 -4 7 -16 15
-27 13 -17 15 -17 54 5 23 12 41 26 41 31 0 19 -84 98 -115 108 -55 18 -128
26 -175 19z"/>
<path d="M14130 8076 c8 -22 25 -136 32 -215 l3 -34 -73 2 c-44 1 -94 -4 -128
-14 -31 -9 -58 -14 -61 -11 -3 2 -7 61 -10 129 l-6 124 -45 -13 c-25 -8 -55
-14 -67 -14 -21 0 -22 -1 -10 -48 29 -111 59 -503 42 -549 -8 -22 -6 -23 50
-23 76 0 86 7 72 48 -6 18 -12 80 -12 139 l-2 107 65 19 c69 19 162 19 182 -1
6 -6 20 -76 30 -154 11 -78 20 -143 21 -144 1 -1 26 1 55 3 44 5 52 9 47 22
-25 65 -81 557 -69 605 5 22 1 26 -33 35 -21 6 -50 11 -65 11 -25 0 -27 -2
-18 -24z"/>
<path d="M6848 8478 c-9 -7 -19 -31 -22 -53 -6 -34 -112 -463 -132 -532 -6
-20 -3 -23 25 -23 58 0 180 -30 259 -64 123 -53 118 -52 125 -9 3 21 9 47 12
58 5 18 -8 25 -103 62 -60 23 -128 45 -150 49 -23 4 -42 9 -42 13 0 29 111
435 135 494 6 15 1 17 -42 17 -27 0 -56 -6 -65 -12z"/>
<path d="M7470 8279 c0 -6 -61 -135 -135 -287 l-134 -276 52 -21 c98 -40 181
-90 308 -183 16 -12 20 -10 37 25 35 69 36 80 5 88 -21 5 -247 123 -272 142
-3 2 11 33 30 71 40 78 48 80 140 34 l57 -28 19 46 20 46 -74 33 c-40 19 -73
37 -73 42 0 5 15 39 32 76 18 38 33 69 34 70 3 9 134 -45 186 -77 35 -21 64
-37 66 -35 2 2 9 26 17 54 l13 51 -31 19 c-61 38 -153 79 -221 100 -80 25 -76
24 -76 10z"/>
<path d="M8020 7934 c-19 -7 -43 -13 -52 -13 -12 -1 2 -20 42 -59 33 -32 60
-63 60 -69 0 -16 -260 -265 -335 -320 l-64 -47 52 -47 52 -47 25 31 c38 50
167 181 261 268 l87 79 70 -70 c39 -38 73 -67 75 -62 2 4 10 28 17 54 l12 47
-78 75 c-44 40 -101 101 -129 135 -27 33 -52 60 -55 60 -3 -1 -21 -7 -40 -15z"/>
<path d="M8540 7014 c0 -4 21 -46 47 -95 30 -56 44 -92 38 -97 -14 -13 -390
-168 -456 -188 l-55 -17 24 -61 c35 -87 40 -92 71 -63 50 46 157 98 383 187
l97 37 57 -84 58 -84 45 45 44 44 -46 53 c-56 64 -132 197 -153 265 -14 48
-17 52 -52 58 -48 8 -102 8 -102 0z"/>
<path d="M8987 6514 c-54 -67 -313 -253 -495 -355 l-82 -46 39 -27 c21 -15 49
-38 61 -51 l23 -24 41 46 c44 50 178 143 205 143 9 -1 43 -37 75 -81 l59 -80
-44 -45 c-24 -25 -78 -68 -119 -96 -41 -28 -74 -55 -72 -60 1 -5 20 -34 42
-63 l39 -53 78 80 c93 96 303 274 390 330 l61 40 -19 46 c-11 26 -24 57 -29
69 -8 20 -13 17 -83 -50 -40 -40 -92 -85 -115 -101 -50 -34 -52 -33 -118 62
l-45 65 28 29 c34 36 147 113 197 133 20 8 36 17 36 20 0 3 -23 19 -50 36 -28
17 -56 39 -63 49 -12 18 -15 17 -40 -16z"/>
<path d="M11806 6293 c-14 -45 -33 -72 -82 -123 l-63 -66 34 -18 c46 -25 214
-199 302 -313 l70 -92 39 26 c79 53 136 107 165 157 16 28 29 57 29 64 0 7
-15 35 -33 62 l-33 49 -17 -48 c-21 -59 -79 -137 -109 -147 -18 -5 -30 2 -65
41 l-42 49 33 36 c29 32 65 107 54 114 -1 1 -20 14 -40 29 l-37 28 -25 -49
c-41 -82 -49 -83 -108 -25 l-51 51 27 35 c24 31 81 156 74 162 -3 2 -99 35
-103 35 -1 0 -9 -26 -19 -57z"/>
<path d="M9378 6032 c-47 -70 -241 -327 -325 -429 l-84 -102 112 -57 c126 -63
224 -121 286 -171 23 -18 44 -33 46 -33 8 0 87 101 87 111 0 5 -6 9 -12 9 -35
0 -328 164 -328 183 0 10 19 35 77 101 l41 47 56 -31 c30 -17 68 -45 84 -61
l29 -30 32 39 c17 22 31 44 31 50 0 6 -17 20 -37 33 -21 12 -59 38 -85 57 -46
35 -47 36 -32 63 19 37 73 99 86 99 19 0 163 -95 210 -139 42 -38 48 -41 54
-25 4 11 13 34 20 53 8 18 14 39 14 45 0 6 -35 29 -78 50 -44 21 -108 60 -143
87 -35 27 -76 58 -90 69 l-27 20 -24 -38z"/>
<path d="M11450 5991 c-58 -19 -130 -64 -200 -125 -41 -36 -78 -66 -81 -66 -4
0 23 -30 60 -68 85 -86 174 -221 236 -356 l48 -106 21 19 c12 11 64 43 116 71
97 52 170 113 196 162 21 41 17 79 -17 146 -33 67 -77 102 -127 102 -29 0 -30
1 -25 39 7 51 -26 122 -73 158 -37 28 -108 39 -154 24z m91 -120 c55 -55 37
-95 -73 -170 l-47 -32 -46 63 -45 63 37 32 c41 35 109 73 131 73 8 0 27 -13
43 -29z m158 -207 c32 -23 53 -77 42 -106 -12 -30 -54 -68 -119 -108 -62 -38
-54 -42 -108 64 l-36 69 24 19 c100 79 150 94 197 62z"/>
<path d="M9880 5752 c0 -15 -31 -116 -69 -223 -89 -250 -115 -314 -146 -354
-19 -26 -22 -35 -12 -43 16 -14 105 -38 112 -31 3 4 12 32 20 63 8 32 30 90
49 131 l33 72 77 -21 c66 -18 77 -24 82 -46 3 -14 16 -71 31 -127 14 -56 23
-113 20 -126 -6 -22 -3 -24 58 -33 36 -5 65 -9 65 -8 0 1 -7 21 -16 45 -20 55
-54 206 -54 239 0 20 9 29 39 41 45 19 71 61 91 147 15 66 9 131 -16 166 -34
48 -171 102 -326 130 -37 7 -38 6 -38 -22z m170 -118 c111 -25 144 -75 105
-159 -29 -59 -81 -68 -180 -32 -53 20 -60 26 -57 47 4 46 42 160 53 160 5 0
41 -7 79 -16z"/>
<path d="M10580 5653 c-102 -9 -186 -16 -188 -18 -1 -1 5 -19 15 -41 22 -50
32 -436 14 -540 -7 -36 -9 -69 -6 -73 13 -12 368 -6 412 7 40 12 41 14 48 65
3 28 9 60 11 70 5 16 2 16 -33 -3 -44 -22 -152 -39 -257 -40 l-68 0 4 95 c2
52 6 97 9 99 3 3 49 11 103 18 l98 12 -5 44 c-2 23 -7 45 -9 48 -3 2 -28 0
-56 -6 -27 -6 -70 -10 -94 -8 l-43 3 -3 77 -3 77 38 7 c21 4 98 8 170 8 73 1
133 3 133 4 0 2 -7 28 -16 58 -18 63 12 59 -274 37z"/>
<path d="M11475 3578 c-135 -18 -200 -59 -198 -124 2 -78 48 -102 175 -90 87
8 175 42 201 78 17 23 19 34 11 64 -16 66 -74 88 -189 72z"/>
<path d="M11512 3239 c-72 -12 -144 -44 -178 -80 -24 -25 -29 -39 -28 -75 2
-91 86 -134 224 -114 94 13 174 45 205 81 36 43 35 108 -2 149 -42 46 -107 58
-221 39z"/>
<path d="M9292 3510 c-28 -12 -54 -72 -46 -105 15 -61 107 -97 251 -99 86 -1
123 20 137 77 21 80 -58 128 -219 134 -55 2 -110 -1 -123 -7z"/>
<path d="M9230 3162 c-22 -10 -42 -32 -54 -56 -17 -36 -18 -43 -5 -80 24 -70
93 -103 235 -113 105 -7 145 1 183 36 26 25 31 36 31 78 0 56 -17 86 -63 110
-87 45 -261 58 -327 25z"/>
<path d="M10387 3156 c-133 -48 -145 -203 -19 -258 66 -30 172 -29 235 1 120
58 115 195 -8 252 -48 22 -152 24 -208 5z"/>
</g>
</svg>
